<svg xmlns="http://www.w3.org/2000/svg" viewBox="0 0 32 32">
  <defs>
    <linearGradient id="bg" x1="0%" y1="0%" x2="0%" y2="100%">
      <stop offset="0%" stop-color="#f5f8ff"/>
      <stop offset="100%" stop-color="#e0e8f5"/>
    </linearGradient>
  </defs>
  <rect width="32" height="32" rx="5" fill="url(#bg)"/>
  <g>
    <circle cx="8" cy="9" r="1.8" fill="#2563eb"/>
    <circle cx="14" cy="6" r="1.2" fill="#ea580c"/>
    <circle cx="22" cy="10" r="2" fill="#16a34a"/>
    <circle cx="26" cy="7" r="1.4" fill="#ec4899"/>
    <circle cx="11" cy="15" r="1.6" fill="#eab308"/>
    <circle cx="19" cy="14" r="1.1" fill="#2563eb"/>
    <circle cx="25" cy="16" r="1.9" fill="#ea580c"/>
    <circle cx="7" cy="20" r="1.3" fill="#ec4899"/>
    <circle cx="13" cy="22" r="2" fill="#16a34a"/>
    <circle cx="21" cy="20" r="1.2" fill="#eab308"/>
    <circle cx="27" cy="23" r="1.7" fill="#2563eb"/>
    <circle cx="10" cy="26" r="1.4" fill="#ea580c"/>
    <circle cx="17" cy="27" r="1.1" fill="#ec4899"/>
    <circle cx="24" cy="27" r="1.8" fill="#16a34a"/>
    <circle cx="15" cy="11" r="1.3" fill="#eab308"/>
    <circle cx="29" cy="14" r="1.2" fill="#ec4899"/>
    <circle cx="5" cy="14" r="1" fill="#2563eb"/>
    <circle cx="18" cy="18" r="1.5" fill="#eab308"/>
  </g>
</svg>
