<svg width="361.24444" height="361.24445" xmlns="http://www.w3.org/2000/svg" xmlns:xlink="http://www.w3.org/1999/xlink">
 <defs>
  <filter color-interpolation-filters="sRGB" id="filter1027">
   <feGaussianBlur id="feGaussianBlur1021" stdDeviation="2"/>
  </filter>
  <filter color-interpolation-filters="sRGB" id="filter1233">
   <feGaussianBlur id="feGaussianBlur1227" stdDeviation="4"/>
  </filter>
  <linearGradient id="linearGradient1045">
   <stop stop-color="#f2f2f2" id="stop1041" offset="0"/>
   <stop stop-color="#ffffff" id="stop1043" offset="1"/>
  </linearGradient>
  <linearGradient y2="0.561269" x2="0.348848" y1="0.449232" x1="0.456435" id="linearGradient1049" xlink:href="#linearGradient1045"/>
 </defs>
 <metadata id="metadata5">image/svg+xml</metadata>
 <g>
  <title>background</title>
  <rect fill="none" id="canvas_background" height="402" width="582" y="-1" x="-1"/>
 </g>
 <g>
  <title>Layer 1</title>
  <g id="layer1">
   <path fill="#ffffff" fill-rule="evenodd" stroke="#b3b3b3" stroke-width="0.264517" stroke-linejoin="round" stroke-miterlimit="4" filter="url(#filter1027)" id="path880" d="m53.44657,5.570356l0,332.944725l254.00714,0l0,-185.460249c0,-8.567453 0.267267,-36.316279 -19.2984,-54.991039c-19.565666,-18.67476 -69.624052,-66.735158 -83.215905,-79.509918c-13.591853,-12.77476 -33.587692,-13.220213 -45.861106,-13.161693c-12.1056,0.05772 -105.631731,0.178187 -105.631731,0.178187l0,-0.000013z"/>
   <path fill="url(#linearGradient1049)" fill-rule="evenodd" stroke="#b3b3b3" stroke-width="0.264583" stroke-miterlimit="4" filter="url(#filter1233)" id="path944" d="m203.511193,17.278863c17.953066,17.067946 13.363293,49.749599 12.599026,66.399985c24.462999,-5.584707 58.616505,-1.06112 76.381371,19.046306c-29.776026,-29.558973 -62.040252,-59.905385 -88.980398,-85.446291z"/>
   <g fill="#808080" id="layer1-3" transform="matrix(0.63109575,0,0,0.63109575,94.953397,27.134777) ">
    <g id="svg_1">
     <path id="svg_2" d="m164.263081,256.184811l-22.837,0l0,-41.894l21.906,0l0,5.313l-15.554,0l0,12.103l14.677,0l0,5.257l-14.677,0l0,13.91l16.484,0l0,5.311l0.001,0z" fill="#EA5514"/>
    </g>
    <g id="svg_3">
     <path id="svg_4" d="m188.465081,236.250811c3.121,1.15 4.874,4.107 5.859,8.543c1.26,5.476 2.301,9.802 3.122,11.39l-6.572,0c-0.603,-1.204 -1.588,-4.874 -2.628,-10.021c-1.15,-5.586 -3.177,-7.722 -7.612,-7.722l-3.834,0l0,17.743l-6.298,0l0,-41.346c2.684,-0.493 6.407,-0.876 10.187,-0.876c5.477,0 9.31,0.985 11.938,3.34c2.19,1.917 3.341,4.819 3.341,8.214c0,5.367 -3.286,9.036 -7.503,10.625l0,0.11zm-7.394,-2.573c5.258,0 8.544,-3.012 8.544,-7.503c0,-5.421 -3.834,-7.283 -8.379,-7.283c-2.136,0 -3.67,0.164 -4.437,0.383l0,14.403l4.272,0z" fill="#EA5514"/>
    </g>
    <g id="svg_5">
     <path id="svg_6" d="m238.408081,234.826811c0,14.567 -7.831,21.96 -18.018,21.96c-10.679,0 -17.524,-8.652 -17.524,-21.303c0,-13.198 7.339,-21.851 18.072,-21.851c11.117,0.001 17.47,9.147 17.47,21.194zm-28.86,0.493c0,8.489 3.833,16.265 11.062,16.265c7.339,0 11.117,-7.612 11.117,-16.539c0,-7.996 -3.505,-16.21 -11.007,-16.21c-7.722,0 -11.172,8.27 -11.172,16.484z" fill="#EA5514"/>
    </g>
    <g id="svg_7">
     <path id="svg_8" d="m291.139081,214.290811l-10.733,41.894l-6.627,0l-4.545,-20.208c-1.096,-4.874 -1.917,-9.091 -2.41,-13.581l-0.164,0c-0.657,4.49 -1.588,8.598 -2.848,13.581l-4.983,20.208l-6.682,0l-9.803,-41.894l6.736,0l4.162,19.934c1.04,5.148 1.972,10.296 2.684,14.622l0.109,0c0.657,-4.491 1.862,-9.419 3.066,-14.731l4.765,-19.825l6.353,0l4.381,19.934c1.041,4.929 2.026,9.748 2.629,14.567l0.164,0c0.712,-4.929 1.698,-9.639 2.793,-14.731l4.491,-19.77l6.462,0z" fill="#EA5514"/>
    </g>
    <g id="svg_9">
     <path id="svg_10" d="m161.031081,268.172811c-1.369,-0.767 -3.997,-1.862 -7.447,-1.862c-4.984,0 -7.064,2.902 -7.064,5.586c0,3.56 2.354,5.313 7.666,7.612c6.736,2.957 9.968,6.626 9.968,12.377c0,7.01 -5.203,12.267 -14.622,12.267c-3.943,0 -8.105,-1.15 -10.132,-2.519l1.424,-5.313c2.246,1.369 5.641,2.464 9.091,2.464c4.983,0 7.776,-2.573 7.776,-6.353c0,-3.56 -2.136,-5.75 -7.119,-7.831c-6.243,-2.519 -10.46,-6.298 -10.46,-11.993c0,-6.626 5.313,-11.609 13.637,-11.609c3.998,0 7.01,0.985 8.816,1.916l-1.534,5.258z" fill="#3E3A39"/>
     <path id="svg_11" d="m204.237081,282.192811c0,14.567 -7.831,21.96 -18.018,21.96c-10.679,0 -17.524,-8.652 -17.524,-21.303c0,-13.198 7.339,-21.851 18.072,-21.851c11.118,0 17.47,9.146 17.47,21.194zm-28.86,0.492c0,8.489 3.833,16.266 11.062,16.266c7.339,0 11.117,-7.612 11.117,-16.539c0,-7.995 -3.505,-16.21 -11.007,-16.21c-7.723,-0.001 -11.172,8.269 -11.172,16.483z" fill="#3E3A39"/>
     <path id="svg_12" d="m210.750081,303.549811l0,-41.895l21.796,0l0,5.313l-15.443,0l0,12.924l14.349,0l0,5.258l-14.349,0l0,18.4l-6.353,0z" fill="#3E3A39"/>
     <path id="svg_13" d="m264.581081,267.076811l-11.336,0l0,36.473l-6.353,0l0,-36.473l-11.282,0l0,-5.422l28.971,0l0,5.422z" fill="#3E3A39"/>
    </g>
    <path id="svg_14" d="m-26.170919,257.995811c0,33.275 26.978,60.248 60.25,60.248c33.27,0 60.244,-26.973 60.244,-60.248c0,-33.274 -26.974,-60.247 -60.244,-60.247c-33.273,0.001 -60.25,26.973 -60.25,60.247" fill="#EA5514"/>
    <path id="svg_15" d="m26.849081,254.491811c3.438,15.4 18.712,25.093 34.103,21.65c15.401,-3.439 25.092,-18.708 21.654,-34.107c-3.436,-15.396 -18.709,-25.087 -34.103,-21.65c-15.401,3.44 -25.092,18.709 -21.654,34.107" fill="#FFFFFF"/>
    <path id="svg_16" d="m-10.606919,273.462811c2.193,9.82 34.233,11.018 71.566,2.68c37.326,-8.336 65.81,-23.055 63.617,-32.875c-2.196,-9.82 -34.233,-11.021 -71.559,-2.682c-37.333,8.338 -65.814,23.057 -63.624,32.877" fill="#FFFFFF"/>
    <path id="svg_17" d="m-0.768919,277.687811c1.438,6.441 29.079,5.751 61.725,-1.543c32.651,-7.293 57.959,-18.428 56.515,-24.871c-1.438,-6.439 -29.069,-5.746 -61.721,1.546c-32.653,7.294 -57.96,18.428 -56.519,24.868" fill="#EA5514"/>
    <path id="svg_18" d="m35.733081,277.642811c0.579,2.594 11.701,2.313 24.85,-0.622c13.146,-2.935 23.333,-7.416 22.751,-10.009c-0.578,-2.596 -11.704,-2.318 -24.85,0.62c-13.148,2.935 -23.332,7.418 -22.751,10.011" fill="#FFFFFF"/>
    <path id="svg_19" d="m108.718081,232.711811c-4.854,0 -8.809,-3.952 -8.809,-8.812c0,-4.86 3.955,-8.812 8.809,-8.812c4.86,0 8.815,3.952 8.815,8.812c0,4.861 -3.955,8.812 -8.815,8.812m0,-15.013c-3.419,0 -6.2,2.785 -6.2,6.202c0,3.42 2.781,6.202 6.2,6.202c3.422,0 6.203,-2.781 6.203,-6.202c0,-3.418 -2.782,-6.202 -6.203,-6.202" fill="#EA5514"/>
    <path id="svg_20" d="m105.910081,227.668811l0,-7.541l3.419,0c0.641,0 1.121,0.064 1.461,0.188c0.327,0.124 0.602,0.352 0.811,0.687s0.308,0.738 0.308,1.221c0,0.418 -0.082,0.779 -0.242,1.082c-0.15,0.304 -0.369,0.552 -0.644,0.738c-0.177,0.121 -0.419,0.222 -0.723,0.299c0.248,0.093 0.422,0.183 0.529,0.278c0.085,0.063 0.189,0.193 0.333,0.394c0.145,0.205 0.239,0.361 0.288,0.469l0.997,2.185l-2.321,0l-1.101,-2.303c-0.138,-0.297 -0.262,-0.492 -0.37,-0.582c-0.15,-0.118 -0.316,-0.175 -0.5,-0.175l-0.183,0l0,3.06l-2.062,0zm2.062,-4.484l0.866,0c0.092,0 0.274,-0.033 0.546,-0.102c0.134,-0.033 0.241,-0.109 0.333,-0.237c0.085,-0.127 0.128,-0.274 0.128,-0.438c0,-0.245 -0.072,-0.428 -0.206,-0.559c-0.138,-0.13 -0.389,-0.198 -0.765,-0.198l-0.902,0l0,1.534z" fill="#EA5514"/>
   </g>
  </g>
 </g>
</svg>