<?xml version="1.0" encoding="utf-8"?>
<!-- Generator: Adobe Illustrator 16.0.0, SVG Export Plug-In . SVG Version: 6.00 Build 0)  -->
<!DOCTYPE svg PUBLIC "-//W3C//DTD SVG 1.1//EN" "http://www.w3.org/Graphics/SVG/1.1/DTD/svg11.dtd">
<svg version="1.1" id="图层_1" xmlns="http://www.w3.org/2000/svg" xmlns:xlink="http://www.w3.org/1999/xlink" x="0px" y="0px"
	 width="1024px" height="1024px" viewBox="0 0 1024 1024" enable-background="new 0 0 1024 1024" xml:space="preserve" sodipodi:docname="icon.svg">
<g>
	<path fill="#EA5514" d="M597.125,481.265h-67.149V358.062h64.415v15.669h-45.775v35.556H591.8v15.48h-43.185v40.869h48.51V481.265z
		"/>
</g>
<g>
	<path fill="#EA5514" d="M668.261,422.655c9.168,3.375,14.365,12.106,17.224,25.093c3.683,16.129,6.785,28.819,9.148,33.517h-19.336
		c-1.683-3.55-4.617-14.325-7.74-29.458c-3.314-16.457-9.279-22.714-22.302-22.714h-11.303v52.172h-18.527v-121.54
		c7.872-1.451,18.852-2.575,29.954-2.575c16.129,0,27.392,2.867,35.116,9.819c6.509,5.605,9.76,14.186,9.76,24.146
		c0,15.761-9.556,26.56-21.994,31.25V422.655z M646.543,415.075c15.44,0,25.068-8.832,25.068-22.042
		c0-15.925-11.279-21.391-24.661-21.391c-6.245,0-10.739,0.484-12.998,1.14v42.293H646.543z"/>
</g>
<g>
	<path fill="#EA5514" d="M815.105,418.502c0,42.768-23.102,64.542-53.02,64.542c-31.37,0-51.469-25.48-51.469-62.64
		c0-38.802,21.53-64.25,53.119-64.25C796.39,356.154,815.105,383.058,815.105,418.502z M730.244,419.925
		c0,24.948,11.199,47.807,32.461,47.807c21.574,0,32.737-22.362,32.737-48.638c0-23.458-10.315-47.654-32.381-47.654
		C740.432,371.439,730.244,395.812,730.244,419.925z"/>
</g>
<g>
	<path fill="#EA5514" d="M970.11,358.062l-31.594,123.203h-19.442l-13.41-59.437c-3.19-14.321-5.602-26.72-7.085-39.91h-0.496
		c-1.843,13.19-4.638,25.32-8.34,39.91l-14.638,59.437h-19.627l-28.883-123.203h19.835l12.278,58.633
		c3.003,15.133,5.733,30.286,7.885,42.98h0.252c1.967-13.19,5.465-27.644,9.107-43.313l13.994-58.301h18.655l12.935,58.633
		c3.002,14.501,5.845,28.675,7.64,42.836h0.48c2.11-14.517,5.005-28.335,8.2-43.312l13.266-58.157H970.11z"/>
</g>
<g>
	<path fill="#3E3A39" d="M587.638,516.484c-4.034-2.251-11.759-5.465-21.898-5.465c-14.685,0-20.75,8.472-20.75,16.396
		c0,10.519,6.913,15.604,22.485,22.421c19.807,8.681,29.295,19.468,29.295,36.292c0,20.618-15.221,36.155-42.98,36.155
		c-11.595,0-23.813-3.435-29.854-7.48l4.227-15.549c6.641,4.034,16.688,7.288,26.724,7.288c14.701,0,22.817-7.652,22.817-18.791
		c0-10.383-6.181-16.884-20.811-22.966c-18.34-7.448-30.762-18.511-30.762-35.319c0-19.419,15.568-34.072,40.13-34.072
		c11.65,0,20.55,2.938,25.812,5.673L587.638,516.484z"/>
	<path fill="#3E3A39" d="M714.575,557.766c0,42.673-22.945,64.519-52.863,64.519c-31.462,0-51.629-25.433-51.629-62.695
		c0-38.738,21.635-64.194,53.188-64.194C695.92,495.395,714.575,522.29,714.575,557.766z M629.79,559.149
		c0,24.973,11.263,47.733,32.509,47.733c21.591,0,32.705-22.329,32.705-48.51c0-23.48-10.347-47.686-32.32-47.686
		C639.914,510.688,629.79,534.933,629.79,559.149z"/>
	<path fill="#3E3A39" d="M733.742,620.473V497.338h64.075v15.584h-45.344v38.027h42.153v15.488h-42.153v54.035H733.742z"/>
	<path fill="#3E3A39" d="M892.002,513.254h-33.293v107.219h-18.715V513.254h-33.148v-15.916h85.156V513.254z"/>
</g>
<path fill="#EA5514" d="M37.306,486.614c0,97.823,79.336,177.087,177.135,177.087c97.783,0,177.055-79.264,177.055-177.087
	c0-97.847-79.271-177.135-177.055-177.135C116.642,309.479,37.306,388.768,37.306,486.614"/>
<path fill="#FFFFFF" d="M193.162,476.275c10.14,45.263,55.011,73.766,100.267,63.627c45.314-10.088,73.726-54.963,63.639-100.211
	c-10.124-45.278-54.947-73.782-100.183-63.679C211.565,386.097,183.079,431.02,193.162,476.275"/>
<path fill="#FFFFFF" d="M83.081,531.97c6.437,28.938,100.661,32.501,210.348,7.933c109.745-24.518,193.447-67.718,187.065-96.624
	c-6.496-28.835-100.609-32.405-210.343-7.868C160.369,459.942,76.66,503.167,83.081,531.97"/>
<path fill="#EA5514" d="M112.004,544.444c4.226,18.923,85.504,16.932,181.425-4.542c96.02-21.45,170.361-54.128,166.14-73.087
	c-4.227-18.932-85.505-16.896-181.425,4.554C182.167,492.8,107.777,525.521,112.004,544.444"/>
<path fill="#FFFFFF" d="M219.29,544.444c1.695,7.5,34.465,6.757,73.039-1.936c38.63-8.656,68.544-21.738,66.894-29.383
	c-1.76-7.725-34.408-6.885-73.087,1.739C247.585,523.506,217.591,536.72,219.29,544.444"/>
<path fill="#EA5514" d="M433.796,412.272c-14.226,0-25.88-11.627-25.88-25.968c0-14.25,11.654-25.86,25.88-25.86
	c14.266,0,25.96,11.61,25.96,25.86C459.756,400.646,448.062,412.272,433.796,412.272 M433.796,368.129
	c-10.047,0-18.243,8.2-18.243,18.176c0,10.099,8.196,18.268,18.243,18.268c10.048,0,18.244-8.169,18.244-18.268
	C452.04,376.329,443.844,368.129,433.796,368.129"/>
<path fill="#EA5514" d="M425.536,397.415v-22.17h10.035c1.991,0,3.374,0.188,4.29,0.56c0.972,0.38,1.815,1.036,2.463,2.031
	c0.58,1.02,0.911,2.171,0.911,3.563c0,1.247-0.208,2.315-0.768,3.19c-0.411,0.924-1.06,1.651-1.903,2.188
	c-0.476,0.34-1.239,0.663-2.118,0.852c0.751,0.279,1.287,0.556,1.559,0.823c0.229,0.252,0.56,0.584,0.972,1.144
	c0.56,0.64,0.764,1.092,0.876,1.407l2.938,6.413h-6.816l-3.295-6.729c-0.412-0.899-0.68-1.472-0.947-1.795
	c-0.568-0.244-0.956-0.44-1.556-0.44h-0.575v8.964H425.536z M431.602,384.249h2.526c0.284,0,0.972-0.12,1.636-0.268
	c0.447-0.096,0.763-0.412,1.095-0.72c0.145-0.396,0.348-0.812,0.348-1.287c0-0.728-0.268-1.264-0.615-1.651
	c-0.448-0.396-1.224-0.568-2.323-0.568h-2.666V384.249z"/>
</svg>
