<svg width="256.000000pt" height="256.000000pt" viewBox="0 0 256.000000 256.000000" xmlns="http://www.w3.org/2000/svg">
  <g transform="translate(0.000000,256.000000) scale(0.100000,-0.100000)" fill="#fefefe" stroke="none">
    <path d="M0 1280 l0 -1280 1280 0 1280 0 0 1280 0 1280 -1280 0 -1280 0 0
-1280z m1758 925 c262 -129 524 -259 582 -288 l105 -53 2 -580 c2 -318 -1
-584 -5 -591 -10 -16 -1140 -573 -1162 -573 -22 0 -1152 558 -1162 573 -4 7
-7 273 -5 591 l2 580 125 63 c138 69 1033 512 1038 512 1 1 217 -105 480 -234z" />
  </g>
  <g transform="translate(0.000000,256.000000) scale(0.100000,-0.100000)" fill="#fec843" stroke="none">
    <path d="M780 2199 c-267 -132 -519 -256 -560 -277 -41 -21 -76 -44 -77 -52
l-3 -15 108 -52 c59 -29 313 -154 565 -278 251 -124 462 -225 468 -225 6 0
216 101 467 225 251 124 505 249 564 278 l108 52 -3 15 c-3 17 51 -11 -600
310 -290 143 -533 260 -540 259 -7 0 -230 -108 -497 -240z" />
  </g>
  <g transform="translate(0.000000,256.000000) scale(0.100000,-0.100000)" fill="#0070cd" stroke="none">
    <path d="M132 1263 l3 -576 125 -63 c459 -230 981 -484 994 -484 l16 0 -2 577
-3 578 -195 97 c-772 384 -903 448 -921 448 l-19 0 2 -577z m499 -7 c67 -31
132 -86 165 -137 l24 -39 0 -32 0 -32 -22 -23 c-12 -13 -27 -23 -35 -23 -20 0
-15 -35 8 -56 51 -45 75 -104 71 -171 l-2 -23 -25 -16 -25 -17 -45 1 -46 1
-64 31 c-74 35 -165 104 -165 125 0 29 21 25 72 -14 65 -49 126 -73 170 -69
l33 3 3 48 3 47 -23 33 c-30 42 -52 62 -116 99 -52 30 -71 52 -58 65 4 4 28
-1 55 -11 27 -9 64 -16 83 -14 l33 3 3 38 3 37 -21 29 c-29 41 -78 69 -144 83
l-57 11 -10 19 c-5 10 -7 23 -3 29 l7 11 36 -5 c21 -2 62 -16 92 -31z" />
  </g>
  <g transform="translate(0.000000,256.000000) scale(0.100000,-0.100000)" fill="#00ae41" stroke="none">
    <path d="M2370 1829 c-8 -5 -257 -129 -552 -275 l-538 -265 0 -575 0 -574 19
0 c11 0 36 9 58 19 21 11 259 128 528 261 270 132 501 247 515 254 l25 15 3
575 2 576 -22 -1 c-13 0 -30 -4 -38 -10z m-260 -558 c14 -9 33 -33 42 -52 l18
-34 0 -48 c0 -56 -30 -152 -67 -210 -41 -65 -112 -136 -188 -186 -70 -47 -233
-131 -254 -131 l-11 0 0 260 0 260 48 31 c68 44 203 107 264 124 l53 14 35 -5
c19 -3 46 -13 60 -23z" />
    <path d="M1889 1205 c-50 -18 -121 -55 -141 -73 l-18 -15 0 -204 0 -203 21 0
c37 0 157 70 213 125 l53 52 28 59 28 59 1 83 1 84 -28 24 -28 24 -47 -1 c-26
0 -63 -6 -83 -14z" />
  </g>
  <g transform="translate(0.000000,256.000000) scale(0.100000,-0.100000)" fill="#1c2a2e" stroke="none">
    <path d="M1950 1285 c-53 -15 -202 -84 -267 -124 l-33 -21 0 -260 0 -261 15
-5 16 -6 112 55 c126 62 210 126 277 209 l46 57 23 65 c12 36 25 91 28 123 l5
58 -14 39 c-7 22 -25 48 -39 59 l-27 19 -43 4 c-24 2 -69 -3 -99 -11z m96 -99
l34 -34 0 -55 c0 -30 -7 -74 -15 -98 -24 -69 -82 -145 -149 -195 -66 -50 -146
-94 -171 -94 l-15 0 0 205 0 204 46 27 c72 42 156 74 198 74 l38 0 34 -34z" />
    <path d="M502 1264 l3 -29 45 -11 c92 -23 167 -78 185 -135 l7 -20 -18 -20
c-21 -23 -52 -24 -101 -4 -19 8 -42 15 -49 15 l-14 0 0 -24 0 -24 43 -22 c69
-36 114 -78 137 -126 l23 -46 -11 -23 -11 -24 -26 -7 -26 -6 -42 16 c-23 9
-66 34 -95 56 -29 22 -59 40 -67 40 l-15 0 0 -23 c0 -13 10 -33 23 -45 38 -35
137 -91 192 -107 64 -18 86 -19 120 -3 l25 11 10 37 10 36 -10 32 c-11 42 -42
91 -74 121 -14 14 -26 28 -26 33 0 4 9 8 20 8 11 0 29 9 40 20 l20 20 0 32 c0
46 -35 111 -82 154 -50 44 -136 85 -195 92 l-45 5 4 -29z" />
  </g>
  <g transform="translate(0.000000,256.000000) scale(0.100000,-0.100000)" fill="#daedec" stroke="none">
    <path d="M107 1873 c-9 -9 -9 -1175 1 -1190 4 -6 263 -138 577 -293 l570 -282
25 0 25 0 570 282 c313 155 573 287 577 293 4 7 7 277 5 601 l-2 589 -10 4
-10 3 3 -586 2 -587 -16 -18 c-10 -11 -20 -19 -24 -19 -4 0 -254 -121 -554
-270 -301 -148 -557 -270 -569 -269 -12 0 -276 127 -587 282 l-565 282 0 593
c0 325 -3 592 -6 592 -3 0 -9 -3 -12 -7z" />
  </g>
  <g transform="translate(0.000000,256.000000) scale(0.100000,-0.100000)" fill="#098239" stroke="none">
    <path d="M1952 1295 c-61 -17 -196 -80 -264 -124 l-48 -31 0 -270 0 -270 21 0
c30 0 181 75 265 131 87 58 171 149 208 225 15 31 33 84 40 117 l13 61 -9 45
c-15 80 -53 117 -129 126 l-44 5 -53 -15z m158 -33 c14 -10 31 -36 38 -58 l14
-39 -6 -50 c-3 -27 -16 -78 -28 -113 l-22 -63 -46 -57 c-25 -31 -72 -78 -105
-105 -54 -43 -216 -133 -273 -151 l-22 -7 0 255 0 256 33 21 c17 11 73 40 122
64 151 75 238 89 295 47z" />
    <path d="M1868 1206 c-31 -13 -77 -35 -102 -50 l-46 -27 0 -214 0 -215 25 0
c34 0 106 38 182 94 l62 47 39 59 c22 32 45 82 52 110 l12 51 -4 56 -5 56 -32
29 -31 28 -48 0 -47 0 -57 -24z m169 -20 l28 -24 -1 -74 -1 -73 -28 -59 -28
-59 -53 -52 c-49 -47 -175 -125 -203 -125 l-11 0 0 193 0 194 18 15 c20 18 91
55 141 73 20 8 53 14 73 14 l37 1 28 -24z" />
  </g>
  <g transform="translate(0.000000,256.000000) scale(0.100000,-0.100000)" fill="#135432" stroke="none">
    <path d="M2028 1293 c7 -3 16 -2 19 1 4 3 -2 6 -13 5 l-19 -1 13 -5z" />
    <path d="M1915 1273 c-22 -7 -89 -40 -150 -72 l-110 -59 -3 -266 -2 -266 16 0
c30 0 236 113 303 166 115 92 183 204 197 327 l6 52 -11 41 c-13 48 -55 94
-85 94 l-21 -1 32 -14 c17 -7 40 -26 50 -41 l18 -28 0 -66 0 -65 -25 -68 -24
-68 -46 -57 c-25 -31 -72 -78 -105 -105 -62 -50 -271 -161 -286 -151 l-9 5 0
250 0 249 33 21 c67 41 214 109 267 123 l55 15 -30 -1 c-16 0 -48 -7 -70 -15z" />
    <path d="M1868 1206 c-31 -13 -77 -35 -102 -50 l-46 -27 0 -213 0 -214 14 -5
c20 -8 121 43 192 96 67 51 125 127 149 196 8 24 15 73 15 108 l0 65 -34 34
-34 34 -48 0 -49 0 -57 -24z m179 -10 l28 -24 -1 -84 0 -83 -31 -61 -32 -61
-55 -50 c-61 -56 -173 -123 -205 -123 l-21 0 0 203 0 204 18 15 c20 17 121 66
160 78 15 5 46 9 69 9 l42 1 28 -24z" />
  </g>
  <g transform="translate(0.000000,256.000000) scale(0.100000,-0.100000)" fill="#14b349" stroke="none">
    <path d="M2350 1829 c-30 -16 -283 -141 -562 -279 l-508 -250 0 -13 0 -14 253
125 c138 69 391 195 560 279 169 84 312 153 318 153 l9 0 -2 -566 -3 -565 -25
-15 c-14 -7 -245 -122 -515 -255 -269 -132 -509 -250 -532 -261 -23 -11 -46
-17 -52 -14 l-11 7 0 -15 0 -16 19 0 c10 0 149 64 307 143 159 79 412 204 562
278 l272 134 0 587 0 588 -17 -1 c-10 0 -43 -14 -73 -30z" />
  </g>
  <g transform="translate(0.000000,256.000000) scale(0.100000,-0.100000)" fill="#167bcd" stroke="none">
    <path d="M120 1271 l0 -589 142 -70 c79 -39 336 -165 571 -281 235 -116 433
-211 438 -211 6 0 9 8 7 17 -2 10 -10 17 -17 15 -10 -2 -510 241 -991 482
l-125 63 -3 566 -2 567 9 0 c6 0 149 -69 318 -153 169 -85 412 -205 538 -267
127 -62 238 -120 247 -128 l18 -15 0 17 0 17 -564 280 c-311 153 -569 279
-575 279 l-11 0 0 -589z" />
  </g>
  <g transform="translate(0.000000,256.000000) scale(0.100000,-0.100000)" fill="#fdd87e" stroke="none">
    <path d="M840 2239 c-234 -116 -489 -242 -567 -280 l-143 -70 0 -15 c0 -16 16
-19 25 -4 3 5 56 34 118 64 62 30 313 153 559 275 l448 220 507 -250 c280
-138 531 -262 558 -275 28 -14 58 -30 67 -36 18 -13 34 -6 24 11 -4 5 -80 46
-169 89 -89 44 -345 170 -570 281 -224 111 -413 201 -420 200 -6 0 -203 -95
-437 -210z" />
  </g>
  <g transform="translate(0.000000,256.000000) scale(0.100000,-0.100000)" fill="#134065" stroke="none">
    <path d="M484 1286 c-4 -10 -2 -28 4 -42 l12 -24 18 0 c10 0 42 -7 71 -16 l52
-15 40 -40 40 -40 -3 -32 -3 -32 -23 -3 c-13 -2 -45 4 -71 14 -27 9 -56 14
-65 11 -9 -4 -16 -16 -16 -27 l0 -20 33 -19 c68 -40 124 -85 146 -118 l22 -34
-3 -37 -3 -37 -23 -3 c-34 -5 -99 23 -160 69 -29 22 -61 39 -70 37 l-17 -3 -3
-27 -3 -27 51 -40 c28 -22 80 -55 116 -72 l65 -31 53 -1 53 -1 25 16 25 17 6
30 c4 17 4 46 0 64 -7 37 -41 93 -72 121 -24 22 -27 36 -8 36 8 0 23 10 35 23
l22 23 0 42 0 42 -24 39 c-52 82 -176 160 -268 169 l-48 5 -6 -17z m163 -46
l62 -31 41 -46 c22 -25 45 -63 52 -84 l11 -39 -11 -25 -12 -25 -30 -7 c-17 -3
-33 -10 -36 -15 -3 -5 12 -28 34 -52 66 -71 86 -126 68 -182 -4 -12 -20 -27
-36 -34 l-30 -13 -48 13 c-92 25 -232 113 -232 146 0 8 2 14 5 14 3 0 26 -16
52 -36 61 -47 119 -74 161 -74 l32 0 20 20 c11 11 20 30 20 42 0 37 -40 106
-78 137 -20 16 -56 39 -79 51 -24 12 -43 28 -43 36 0 8 2 14 4 14 2 0 20 -7
39 -15 48 -20 96 -19 119 2 22 19 23 45 4 81 -28 53 -91 95 -175 116 l-46 11
-3 19 -4 19 38 -6 c21 -4 67 -20 101 -37z" />
  </g>
  <g transform="translate(0.000000,256.000000) scale(0.100000,-0.100000)" fill="#fdedc5" stroke="none">
    <path d="M810 2224 c-649 -320 -683 -338 -688 -351 l-4 -13 17 0 16 0 -6 10
-6 10 528 261 c290 143 547 270 571 281 l43 21 294 -146 c162 -81 421 -208
575 -283 153 -76 277 -141 274 -146 -3 -4 2 -8 12 -8 l16 0 -12 15 c-7 8 -85
50 -174 94 -88 43 -344 169 -569 280 -224 111 -413 201 -420 200 -6 0 -217
-101 -467 -225z" />
  </g>
  <g transform="translate(0.000000,256.000000) scale(0.100000,-0.100000)" fill="#085a9e" stroke="none">
    <path d="M484 1286 c-4 -10 -2 -28 4 -40 l10 -23 57 -11 c67 -14 116 -42 145
-83 l21 -29 -3 -27 -3 -28 -26 -3 c-14 -2 -48 6 -75 16 -27 11 -55 17 -61 15
-7 -3 -13 -16 -13 -29 l0 -24 33 -19 c68 -40 124 -85 146 -118 l22 -34 -3 -37
-3 -37 -26 -3 c-34 -4 -102 27 -168 77 l-54 41 -13 -10 c-6 -6 -14 -20 -17
-30 l-5 -20 46 -40 c55 -47 178 -110 213 -109 l24 0 -40 13 c-57 18 -123 53
-177 94 l-48 36 0 23 0 23 14 0 c7 0 31 -14 52 -31 49 -40 131 -79 164 -79 15
0 31 5 38 12 7 7 12 32 12 56 l0 44 -53 51 c-29 29 -72 61 -94 71 -44 19 -61
42 -44 59 l10 10 45 -17 c25 -10 60 -16 78 -14 l33 3 3 40 3 41 -37 37 -37 37
-54 20 c-30 11 -62 20 -73 20 -22 0 -45 35 -34 51 l7 11 38 -5 c48 -6 138 -47
184 -84 20 -15 49 -48 65 -72 l30 -44 0 -43 0 -43 -22 -15 c-12 -9 -30 -16
-40 -16 -10 0 -18 -4 -18 -8 0 -5 12 -19 26 -33 14 -13 37 -44 52 -68 l25 -43
1 -44 1 -43 -18 -18 c-9 -10 -34 -23 -55 -30 l-37 -12 35 5 c19 3 45 12 56 19
25 16 36 61 27 108 -7 37 -41 93 -72 121 -24 22 -27 36 -8 36 8 0 23 10 35 23
l22 23 0 42 0 42 -24 39 c-52 82 -176 160 -268 169 l-48 5 -6 -17z" />
  </g>
  <g transform="translate(0.000000,256.000000) scale(0.100000,-0.100000)" fill="#00859f" stroke="none">
    <path d="M1257 713 l3 -588 15 -3 15 -3 0 590 0 591 -17 0 -18 0 2 -587z" />
  </g>
  <g transform="translate(0.000000,256.000000) scale(0.100000,-0.100000)" fill="#babc4d" stroke="none">
    <path d="M130 1862 c0 -5 96 -55 213 -112 116 -57 368 -181 558 -276 191 -94
356 -175 367 -178 l20 -7 504 248 c276 137 536 264 575 283 68 33 89 50 61 50
-6 0 -106 -47 -222 -104 -116 -57 -372 -183 -568 -280 l-358 -176 -407 201
c-628 310 -730 359 -737 359 -3 0 -6 -4 -6 -8z" />
  </g>
  <g transform="translate(0.000000,256.000000) scale(0.100000,-0.100000)" fill="#a1e0b8" stroke="none">
    <path d="M115 1860 l-6 -10 15 0 c9 0 16 5 16 10 0 6 -4 10 -9 10 -6 0 -13 -4
-16 -10z" />
    <path d="M2430 1863 c0 -5 0 -269 0 -588 l0 -580 -272 -134 c-150 -74 -408
-201 -572 -283 -165 -81 -306 -148 -313 -148 l-14 0 6 -10 7 -11 21 7 c12 4
267 128 566 275 299 148 547 269 551 269 4 0 14 8 23 18 l17 19 0 586 0 587
-10 0 c-5 0 -10 -3 -10 -7z" />
  </g>
  <g transform="translate(0.000000,256.000000) scale(0.100000,-0.100000)" fill="#549fdc" stroke="none">
    <path d="M122 1862 l-12 -8 2 -585 3 -584 565 -282 c311 -155 574 -281 585
-281 11 -1 -79 48 -200 108 -121 60 -381 189 -578 286 l-357 177 2 589 c2 323
3 588 3 588 0 0 -6 -4 -13 -8z" />
  </g>
  <g transform="translate(0.000000,256.000000) scale(0.100000,-0.100000)" fill="#98c5ea" stroke="none">
    <path d="M115 1275 l0 -590 200 -102 c110 -56 205 -102 210 -102 6 0 -82 47
-195 103 l-205 104 -5 588 -5 589 0 -590z" />
    <path d="M547 469 c7 -7 15 -10 18 -7 3 3 -2 9 -12 12 l-18 7 12 -12z" />
    <path d="M587 449 c7 -7 15 -10 18 -7 3 3 -2 9 -12 12 l-18 7 12 -12z" />
    <path d="M627 429 c7 -7 15 -10 18 -7 3 3 -2 9 -12 12 l-18 7 12 -12z" />
    <path d="M667 409 c7 -7 15 -10 18 -7 3 3 -2 9 -12 12 l-18 7 12 -12z" />
    <path d="M707 389 c7 -7 15 -10 18 -7 3 3 -2 9 -12 12 l-18 7 12 -12z" />
    <path d="M747 369 c7 -7 15 -10 18 -7 3 3 -2 9 -12 12 l-18 7 12 -12z" />
    <path d="M785 350 c3 -5 11 -10 16 -10 6 0 7 5 4 10 -3 6 -11 10 -16 10 -6 0
-7 -4 -4 -10z" />
    <path d="M820 336 c0 -2 7 -7 16 -10 l15 -6 -6 10 c-6 10 -25 14 -25 6z" />
    <path d="M860 316 c0 -2 7 -7 16 -10 l15 -6 -6 10 c-6 10 -25 14 -25 6z" />
    <path d="M1070 210 c96 -49 180 -89 185 -89 6 0 -69 40 -165 89 -96 49 -179
89 -185 89 -5 0 69 -40 165 -89z" />
  </g>
  <g transform="translate(0.000000,256.000000) scale(0.100000,-0.100000)" fill="#3fc16f" stroke="none">
    <path d="M2428 1277 l2 -582 -272 -134 c-150 -74 -403 -199 -562 -278 -160
-79 -296 -141 -303 -139 l-13 5 0 -14 c0 -8 3 -15 6 -15 5 0 971 475 1114 547
l35 18 3 588 c1 323 -1 587 -5 587 -5 0 -7 -262 -5 -583z" />
  </g>
  <g transform="translate(0.000000,256.000000) scale(0.100000,-0.100000)" fill="#56b742" stroke="none">
    <path d="M2132 1718 c-155 -78 -281 -143 -279 -145 2 -2 136 62 298 142 161
80 287 145 279 144 -8 0 -142 -64 -298 -141z" />
    <path d="M1566 1439 c-142 -72 -267 -131 -277 -132 -11 -1 -18 -5 -16 -10 1
-5 6 -8 10 -7 13 2 557 271 557 275 0 3 -3 5 -7 4 -5 0 -124 -59 -267 -130z" />
  </g>
  <g transform="translate(0.000000,256.000000) scale(0.100000,-0.100000)" fill="#009c6d" stroke="none">
    <path d="M1275 710 l0 -590 10 0 10 0 -3 582 c-1 320 -6 586 -10 590 -4 4 -7
-258 -7 -582z" />
  </g>
  <g transform="translate(0.000000,256.000000) scale(0.100000,-0.100000)" fill="#6cb58f" stroke="none">
    <path d="M130 1860 c0 -6 102 -60 228 -122 125 -61 230 -113 235 -115 4 -2 7
1 7 7 0 6 -52 35 -115 65 -64 31 -170 82 -235 115 -66 33 -120 56 -120 50z" />
    <path d="M610 1622 c0 -5 7 -13 16 -16 l16 -6 -4 12 c-5 15 -28 23 -28 10z" />
    <path d="M650 1602 c0 -5 7 -13 16 -16 l16 -6 -4 12 c-5 15 -28 23 -28 10z" />
    <path d="M690 1582 c0 -5 7 -13 16 -16 l16 -6 -4 12 c-5 15 -28 23 -28 10z" />
    <path d="M730 1562 c0 -10 131 -75 138 -67 3 3 3 7 1 9 -7 6 -128 66 -134 66
-3 0 -5 -4 -5 -8z" />
    <path d="M882 1488 c5 -15 28 -23 28 -10 0 5 -7 13 -16 16 l-16 6 4 -12z" />
    <path d="M920 1470 c0 -5 13 -16 30 -25 33 -17 40 -18 40 -7 0 5 -16 16 -35
25 -19 9 -35 12 -35 7z" />
    <path d="M1000 1430 c0 -10 251 -140 270 -140 22 0 8 16 -27 32 -21 9 -84 39
-140 67 -57 28 -103 46 -103 41z" />
    <path d="M2414 678 l-7 -11 11 7 c12 7 16 16 8 16 -3 0 -8 -5 -12 -12z" />
    <path d="M2375 660 l-6 -10 15 6 c18 7 21 14 7 14 -6 0 -13 -4 -16 -10z" />
    <path d="M1580 270 l-15 -10 12 0 c6 0 15 5 18 10 8 12 4 12 -15 0z" />
    <path d="M1540 250 l-15 -10 12 0 c6 0 15 5 18 10 8 12 4 12 -15 0z" />
    <path d="M1500 230 l-15 -10 12 0 c6 0 15 5 18 10 8 12 4 12 -15 0z" />
    <path d="M1460 210 l-15 -10 12 0 c6 0 15 5 18 10 8 12 4 12 -15 0z" />
    <path d="M1420 190 l-15 -10 12 0 c6 0 15 5 18 10 8 12 4 12 -15 0z" />
    <path d="M1278 123 c7 -3 16 -2 19 1 4 3 -2 6 -13 5 l-19 -1 13 -5z" />
  </g>
  <g transform="translate(0.000000,256.000000) scale(0.100000,-0.100000)" fill="#4087aa" stroke="none">
    <path d="M147 1854 l-6 -10 95 -47 c52 -26 96 -47 99 -47 3 0 5 5 5 11 0 5 -4
7 -10 4 -5 -3 -10 -1 -10 5 0 6 -4 8 -10 5 -5 -3 -10 -1 -10 5 0 6 -4 8 -10 5
-5 -3 -10 -1 -10 5 0 6 -4 8 -10 5 -5 -3 -10 -1 -10 5 0 6 -4 8 -10 5 -5 -3
-10 -1 -10 5 0 6 -4 8 -10 5 -5 -3 -10 -1 -10 5 0 6 -4 8 -10 5 -5 -3 -10 -1
-10 5 0 6 -4 8 -10 5 -5 -3 -10 -1 -10 5 0 6 -4 9 -9 6 -5 -4 -11 -1 -13 6
l-4 12 -7 -10z" />
    <path d="M354 1748 c3 -15 26 -23 26 -8 0 6 -4 9 -9 6 -5 -4 -12 -1 -14 4 l-5
11 2 -13z" />
    <path d="M394 1728 c3 -15 26 -23 26 -8 0 6 -4 9 -9 6 -5 -4 -12 -1 -14 4 l-5
11 2 -13z" />
    <path d="M432 1709 c2 -7 10 -15 17 -17 l14 -4 -5 13 c-2 7 -10 15 -17 17
l-13 5 4 -14z" />
    <path d="M472 1689 c2 -7 10 -15 17 -17 l14 -4 -5 13 c-2 7 -10 15 -17 17
l-13 5 4 -14z" />
    <path d="M513 1668 c2 -7 10 -13 18 -13 8 0 19 -6 25 -14 6 -8 16 -11 22 -7 5
3 12 2 14 -3 1 -5 10 -11 18 -13 8 -2 21 -9 28 -16 8 -7 17 -10 22 -7 5 3 10
1 12 -4 1 -5 10 -11 18 -13 8 -2 21 -9 28 -16 8 -7 17 -10 22 -7 5 3 10 1 12
-4 1 -5 10 -11 18 -13 8 -2 21 -9 28 -16 8 -7 17 -10 22 -7 5 3 10 1 12 -4 1
-5 99 -57 217 -116 l214 -106 11 12 11 12 -17 -6 -16 -6 -6 16 -6 15 -14 -5
-14 -6 -6 16 -6 15 -15 -6 c-8 -3 -15 -1 -15 5 0 6 -4 7 -10 4 -5 -3 -10 -1
-10 5 0 6 -4 8 -10 5 -5 -3 -10 -1 -10 5 0 6 -4 8 -10 5 -5 -3 -10 -1 -10 5 0
6 -5 8 -10 5 -5 -3 -10 -1 -10 5 0 6 -4 8 -10 5 -5 -3 -10 -1 -10 5 0 6 -4 8
-10 5 -5 -3 -10 -1 -10 5 0 6 -4 8 -10 5 -5 -3 -10 -1 -10 6 0 7 -3 10 -6 6
-4 -3 -13 1 -21 9 -8 8 -19 12 -24 9 -5 -4 -9 -1 -9 5 0 6 -5 8 -10 5 -5 -3
-10 -1 -10 5 0 6 -4 9 -9 6 -5 -4 -11 -2 -13 3 -1 5 -10 11 -18 13 -8 2 -21 9
-28 16 -8 7 -17 10 -22 7 -5 -3 -10 -1 -12 4 -1 5 -10 11 -18 13 -8 2 -21 9
-28 16 -8 7 -17 10 -22 7 -5 -3 -10 -1 -12 4 -3 8 -241 131 -254 131 -3 0 -4
-6 -1 -12z" />
  </g>
  <g transform="translate(0.000000,256.000000) scale(0.100000,-0.100000)" fill="#9ba679" stroke="none">
    <path d="M430 1716 c0 -2 7 -7 16 -10 l15 -6 -6 10 c-6 10 -25 14 -25 6z" />
    <path d="M470 1696 c0 -2 7 -7 16 -10 l15 -6 -6 10 c-6 10 -25 14 -25 6z" />
    <path d="M630 1615 c69 -35 130 -64 135 -64 6 0 -46 29 -115 64 -69 35 -129
64 -135 64 -5 0 46 -29 115 -64z" />
    <path d="M787 1539 c7 -7 15 -10 18 -7 3 3 -2 9 -12 12 l-18 7 12 -12z" />
    <path d="M827 1519 c7 -7 15 -10 18 -7 3 3 -2 9 -12 12 l-18 7 12 -12z" />
    <path d="M867 1499 c7 -7 15 -10 18 -7 3 3 -2 9 -12 12 l-18 7 12 -12z" />
    <path d="M907 1479 c7 -7 15 -10 18 -7 3 3 -2 9 -12 12 l-18 7 12 -12z" />
    <path d="M987 1439 c7 -7 15 -10 18 -7 3 3 -2 9 -12 12 l-18 7 12 -12z" />
    <path d="M1180 1346 c0 -2 7 -7 16 -10 l15 -6 -6 10 c-6 10 -25 14 -25 6z" />
    <path d="M1220 1326 c0 -2 7 -7 16 -10 l15 -6 -6 10 c-6 10 -25 14 -25 6z" />
    <path d="M1263 1303 c4 -3 10 -3 14 0 3 4 0 7 -7 7 -7 0 -10 -3 -7 -7z" />
  </g>
</svg>