<?xml version="1.0" encoding="utf-8"?>
<!-- Generator: Adobe Illustrator 16.0.0, SVG Export Plug-In . SVG Version: 6.00 Build 0)  -->
<!DOCTYPE svg PUBLIC "-//W3C//DTD SVG 1.1//EN" "http://www.w3.org/Graphics/SVG/1.1/DTD/svg11.dtd">
<svg version="1.1" id="图层_1" xmlns="http://www.w3.org/2000/svg" xmlns:xlink="http://www.w3.org/1999/xlink" x="0px" y="0px"
	 width="96px" height="96px" viewBox="0 0 96 96" enable-background="new 0 0 96 96" xml:space="preserve">
<g>
	<path fill="#EA5514" d="M56.446,47.519h-6.071v-11.14h5.824v1.417h-4.139v3.215h3.904v1.399h-3.904v3.695h4.386V47.519z"/>
</g>
<g>
	<path fill="#EA5514" d="M62.878,42.22c0.829,0.305,1.299,1.095,1.558,2.269c0.333,1.458,0.613,2.605,0.827,3.03h-1.748
		c-0.152-0.321-0.418-1.295-0.7-2.663c-0.3-1.488-0.839-2.054-2.017-2.054h-1.021v4.717h-1.676V36.529
		c0.712-0.131,1.705-0.232,2.709-0.232c1.458,0,2.477,0.259,3.175,0.888c0.588,0.507,0.883,1.282,0.883,2.183
		c0,1.426-0.864,2.401-1.989,2.826V42.22z M60.914,41.534c1.396,0,2.267-0.799,2.267-1.993c0-1.439-1.02-1.934-2.229-1.934
		c-0.564,0-0.971,0.043-1.175,0.103v3.824H60.914z"/>
</g>
<g>
	<path fill="#EA5514" d="M76.155,41.844c0,3.867-2.089,5.836-4.794,5.836c-2.836,0-4.653-2.304-4.653-5.664
		c0-3.508,1.946-5.809,4.803-5.809C74.463,36.207,76.155,38.639,76.155,41.844z M68.482,41.973c0,2.256,1.013,4.322,2.935,4.322
		c1.951,0,2.96-2.021,2.96-4.397c0-2.121-0.933-4.309-2.928-4.309C69.403,37.589,68.482,39.792,68.482,41.973z"/>
</g>
<g>
	<path fill="#EA5514" d="M90.17,36.379l-2.856,11.14h-1.758l-1.213-5.374c-0.288-1.295-0.506-2.416-0.641-3.608h-0.045
		c-0.166,1.192-0.419,2.289-0.754,3.608l-1.323,5.374h-1.774l-2.611-11.14h1.793l1.11,5.302c0.271,1.368,0.519,2.738,0.713,3.886
		h0.022c0.178-1.192,0.494-2.499,0.823-3.916l1.266-5.271h1.687l1.17,5.302c0.271,1.311,0.528,2.593,0.69,3.873h0.044
		c0.19-1.313,0.452-2.563,0.741-3.916l1.199-5.259H90.17z"/>
</g>
<g>
	<path fill="#3E3A39" d="M55.589,50.703c-0.365-0.204-1.063-0.494-1.98-0.494c-1.327,0-1.876,0.766-1.876,1.482
		c0,0.951,0.625,1.411,2.033,2.027c1.791,0.784,2.648,1.76,2.648,3.281c0,1.864-1.376,3.269-3.886,3.269
		c-1.049,0-2.153-0.311-2.699-0.676l0.382-1.406c0.601,0.365,1.509,0.659,2.416,0.659c1.329,0,2.063-0.692,2.063-1.699
		c0-0.938-0.56-1.526-1.882-2.076c-1.658-0.674-2.781-1.674-2.781-3.193c0-1.756,1.407-3.081,3.628-3.081
		c1.054,0,1.858,0.266,2.334,0.513L55.589,50.703z"/>
	<path fill="#3E3A39" d="M67.065,54.436c0,3.858-2.074,5.833-4.779,5.833c-2.845,0-4.668-2.299-4.668-5.668
		c0-3.503,1.956-5.805,4.809-5.805C65.379,48.796,67.065,51.228,67.065,54.436z M59.399,54.561c0,2.258,1.019,4.315,2.939,4.315
		c1.952,0,2.957-2.019,2.957-4.386c0-2.123-0.936-4.312-2.922-4.312C60.315,50.179,59.399,52.371,59.399,54.561z"/>
	<path fill="#3E3A39" d="M68.799,60.105V48.972h5.793v1.409h-4.1v3.438h3.812v1.4h-3.812v4.886H68.799z"/>
	<path fill="#3E3A39" d="M83.107,50.411h-3.01v9.694h-1.692v-9.694h-2.997v-1.439h7.699V50.411z"/>
</g>
<path fill="#EA5514" d="M5.83,48.002c0,8.845,7.173,16.012,16.016,16.012c8.841,0,16.009-7.167,16.009-16.012
	c0-8.847-7.168-16.016-16.009-16.016C13.003,31.986,5.83,39.155,5.83,48.002"/>
<path fill="#FFFFFF" d="M19.922,47.067c0.917,4.093,4.974,6.67,9.065,5.753c4.098-0.912,6.666-4.97,5.754-9.061
	c-0.915-4.094-4.968-6.671-9.058-5.758C21.586,38.914,19.01,42.976,19.922,47.067"/>
<path fill="#FFFFFF" d="M9.969,52.104c0.582,2.616,9.102,2.938,19.019,0.717c9.923-2.217,17.491-6.123,16.914-8.736
	c-0.588-2.607-9.097-2.93-19.019-0.711C16.957,45.591,9.389,49.499,9.969,52.104"/>
<path fill="#EA5514" d="M12.584,53.23c0.382,1.711,7.73,1.531,16.403-0.41c8.682-1.939,15.403-4.894,15.021-6.608
	c-0.382-1.712-7.73-1.527-16.403,0.412C18.928,48.562,12.202,51.52,12.584,53.23"/>
<path fill="#FFFFFF" d="M22.284,53.23c0.153,0.679,3.116,0.611,6.604-0.175c3.493-0.782,6.198-1.965,6.049-2.656
	c-0.159-0.698-3.111-0.623-6.608,0.157C24.843,51.338,22.131,52.532,22.284,53.23"/>
<path fill="#EA5514" d="M41.679,41.28c-1.286,0-2.34-1.051-2.34-2.348c0-1.288,1.054-2.338,2.34-2.338
	c1.29,0,2.348,1.05,2.348,2.338C44.026,40.229,42.969,41.28,41.679,41.28 M41.679,37.289c-0.908,0-1.649,0.741-1.649,1.644
	c0,0.913,0.741,1.651,1.649,1.651s1.649-0.738,1.649-1.651C43.328,38.03,42.587,37.289,41.679,37.289"/>
<path fill="#EA5514" d="M40.932,39.938v-2.005h0.908c0.18,0,0.305,0.018,0.388,0.051c0.088,0.034,0.164,0.094,0.223,0.184
	c0.052,0.092,0.082,0.196,0.082,0.322c0,0.112-0.019,0.209-0.069,0.288c-0.037,0.084-0.096,0.149-0.172,0.198
	c-0.043,0.03-0.112,0.06-0.191,0.077c0.067,0.024,0.116,0.05,0.141,0.074c0.021,0.022,0.051,0.053,0.088,0.104
	c0.051,0.058,0.069,0.099,0.079,0.127l0.266,0.58h-0.616l-0.298-0.608c-0.037-0.082-0.062-0.133-0.086-0.162
	c-0.051-0.022-0.086-0.04-0.141-0.04H41.48v0.811H40.932z M41.48,38.747h0.229c0.025,0,0.088-0.011,0.147-0.024
	c0.041-0.009,0.069-0.037,0.1-0.065c0.013-0.035,0.031-0.073,0.031-0.116c0-0.065-0.024-0.114-0.056-0.149
	c-0.041-0.035-0.11-0.051-0.21-0.051H41.48V38.747z"/>
</svg>
