<?xml version="1.0" encoding="utf-8"?>
<!-- Generator: Adobe Illustrator 16.0.0, SVG Export Plug-In . SVG Version: 6.00 Build 0)  -->
<!DOCTYPE svg PUBLIC "-//W3C//DTD SVG 1.1//EN" "http://www.w3.org/Graphics/SVG/1.1/DTD/svg11.dtd">
<svg version="1.1" id="图层_1" xmlns="http://www.w3.org/2000/svg" xmlns:xlink="http://www.w3.org/1999/xlink" x="0px" y="0px"
	 width="256px" height="256px" viewBox="0 0 256 256" enable-background="new 0 0 256 256" xml:space="preserve">
<g>
	<path fill="#EA5514" d="M154.54,126.699h-16.401V96.606h15.733v3.827h-11.181v8.685h10.548v3.781h-10.548v9.982h11.849V126.699z"/>
</g>
<g>
	<path fill="#EA5514" d="M171.915,112.384c2.239,0.824,3.509,2.957,4.207,6.129c0.899,3.939,1.657,7.039,2.234,8.187h-4.723
		c-0.411-0.867-1.128-3.499-1.891-7.195c-0.81-4.02-2.267-5.548-5.447-5.548h-2.761v12.743h-4.525V97.013
		c1.923-0.354,4.604-0.629,7.316-0.629c3.939,0,6.69,0.7,8.577,2.398c1.59,1.369,2.384,3.465,2.384,5.897
		c0,3.85-2.334,6.487-5.372,7.633V112.384z M166.61,110.532c3.771,0,6.123-2.157,6.123-5.384c0-3.89-2.755-5.225-6.023-5.225
		c-1.525,0-2.623,0.118-3.175,0.278v10.33H166.61z"/>
</g>
<g>
	<path fill="#EA5514" d="M207.782,111.369c0,10.446-5.643,15.765-12.95,15.765c-7.662,0-12.571-6.224-12.571-15.3
		c0-9.478,5.259-15.693,12.975-15.693C203.211,96.141,207.782,102.712,207.782,111.369z M187.055,111.717
		c0,6.094,2.735,11.677,7.929,11.677c5.27,0,7.996-5.462,7.996-11.88c0-5.729-2.52-11.64-7.909-11.64
		C189.543,99.874,187.055,105.827,187.055,111.717z"/>
</g>
<g>
	<path fill="#EA5514" d="M245.643,96.606l-7.717,30.093h-4.749l-3.275-14.518c-0.779-3.498-1.368-6.526-1.73-9.748h-0.121
		c-0.45,3.222-1.133,6.185-2.037,9.748l-3.575,14.518h-4.794l-7.055-30.093h4.845l2.999,14.321c0.733,3.696,1.4,7.397,1.926,10.498
		h0.062c0.48-3.222,1.335-6.752,2.225-10.579l3.418-14.24h4.557l3.159,14.321c0.733,3.542,1.428,7.004,1.866,10.463h0.117
		c0.516-3.546,1.223-6.921,2.003-10.579l3.24-14.205H245.643z"/>
</g>
<g>
	<path fill="#3E3A39" d="M152.223,135.302c-0.985-0.55-2.872-1.335-5.349-1.335c-3.587,0-5.068,2.069-5.068,4.005
		c0,2.569,1.688,3.812,5.492,5.477c4.838,2.12,7.155,4.755,7.155,8.864c0,5.036-3.718,8.831-10.498,8.831
		c-2.832,0-5.816-0.839-7.292-1.827l1.032-3.798c1.622,0.985,4.076,1.78,6.527,1.78c3.591,0,5.573-1.869,5.573-4.59
		c0-2.536-1.51-4.124-5.083-5.609c-4.479-1.819-7.514-4.521-7.514-8.627c0-4.743,3.803-8.322,9.802-8.322
		c2.846,0,5.02,0.718,6.305,1.386L152.223,135.302z"/>
	<path fill="#3E3A39" d="M183.228,145.385c0,10.423-5.604,15.759-12.912,15.759c-7.685,0-12.61-6.212-12.61-15.313
		c0-9.462,5.284-15.68,12.991-15.68C178.671,130.15,183.228,136.72,183.228,145.385z M162.519,145.723
		c0,6.1,2.751,11.659,7.94,11.659c5.273,0,7.988-5.454,7.988-11.849c0-5.735-2.527-11.647-7.895-11.647
		C164.991,133.886,162.519,139.808,162.519,145.723z"/>
	<path fill="#3E3A39" d="M187.909,160.701v-30.076h15.65v3.807h-11.075v9.288h10.296v3.783h-10.296v13.198H187.909z"/>
	<path fill="#3E3A39" d="M226.564,134.513h-8.132v26.188h-4.571v-26.188h-8.097v-3.888h20.8V134.513z"/>
</g>
<path fill="#EA5514" d="M17.803,128.006c0,23.894,19.378,43.254,43.266,43.254c23.884,0,43.246-19.36,43.246-43.254
	c0-23.899-19.362-43.266-43.246-43.266C37.181,84.74,17.803,104.106,17.803,128.006"/>
<path fill="#FFFFFF" d="M55.871,125.48c2.477,11.056,13.437,18.018,24.49,15.541c11.068-2.464,18.008-13.425,15.544-24.477
	c-2.473-11.06-13.421-18.021-24.47-15.554C60.366,103.454,53.408,114.427,55.871,125.48"/>
<path fill="#FFFFFF" d="M28.983,139.084c1.572,7.068,24.587,7.938,51.378,1.938c26.806-5.988,47.25-16.54,45.691-23.601
	c-1.587-7.043-24.574-7.915-51.377-1.922C47.861,121.491,27.415,132.049,28.983,139.084"/>
<path fill="#EA5514" d="M36.048,142.131c1.032,4.622,20.885,4.136,44.313-1.109c23.453-5.239,41.611-13.221,40.58-17.852
	c-1.032-4.624-20.885-4.127-44.313,1.112C53.186,129.517,35.016,137.509,36.048,142.131"/>
<path fill="#FFFFFF" d="M62.253,142.131c0.414,1.832,8.418,1.65,17.84-0.473c9.436-2.114,16.742-5.31,16.339-7.177
	c-0.43-1.887-8.404-1.682-17.852,0.425C69.164,137.017,61.838,140.244,62.253,142.131"/>
<path fill="#EA5514" d="M114.646,109.848c-3.475,0-6.321-2.84-6.321-6.343c0-3.48,2.847-6.316,6.321-6.316
	c3.484,0,6.341,2.836,6.341,6.316C120.987,107.008,118.131,109.848,114.646,109.848 M114.646,99.065
	c-2.454,0-4.456,2.003-4.456,4.439c0,2.467,2.002,4.462,4.456,4.462s4.456-1.995,4.456-4.462
	C119.103,101.068,117.101,99.065,114.646,99.065"/>
<path fill="#EA5514" d="M112.629,106.219v-5.415h2.451c0.486,0,0.824,0.046,1.048,0.137c0.237,0.093,0.443,0.253,0.602,0.496
	c0.142,0.249,0.223,0.53,0.223,0.87c0,0.305-0.051,0.565-0.188,0.779c-0.101,0.226-0.259,0.403-0.465,0.534
	c-0.116,0.083-0.303,0.162-0.518,0.208c0.184,0.068,0.314,0.136,0.381,0.201c0.056,0.062,0.137,0.143,0.237,0.279
	c0.137,0.156,0.187,0.267,0.214,0.344l0.718,1.566h-1.665l-0.805-1.644c-0.101-0.22-0.166-0.359-0.231-0.438
	c-0.139-0.06-0.233-0.107-0.38-0.107h-0.141v2.189H112.629z M114.11,103.003h0.617c0.069,0,0.237-0.029,0.399-0.065
	c0.109-0.023,0.187-0.101,0.268-0.176c0.035-0.097,0.085-0.198,0.085-0.314c0-0.178-0.065-0.309-0.15-0.403
	c-0.109-0.097-0.299-0.139-0.567-0.139h-0.651V103.003z"/>
</svg>
