<?xml version="1.0" encoding="utf-8"?>
<!-- Generator: Adobe Illustrator 16.0.0, SVG Export Plug-In . SVG Version: 6.00 Build 0)  -->
<!DOCTYPE svg PUBLIC "-//W3C//DTD SVG 1.1//EN" "http://www.w3.org/Graphics/SVG/1.1/DTD/svg11.dtd">
<svg version="1.1" id="图层_1" xmlns="http://www.w3.org/2000/svg" xmlns:xlink="http://www.w3.org/1999/xlink" x="0px" y="0px"
	 width="524px" height="509px" viewBox="0 0 524 509" enable-background="new 0 0 524 509" xml:space="preserve">
<g>
	<path fill="#2660AD" d="M299.253,268.664h-28.595v-52.459h27.429v6.652h-19.475v15.154h18.378v6.583h-18.378v17.418h20.641V268.664
		z"/>
</g>
<g>
	<path fill="#2660AD" d="M329.567,243.703c3.909,1.44,6.104,5.143,7.338,10.697c1.577,6.857,2.88,12.274,3.908,14.264h-8.229
		c-0.755-1.509-1.988-6.104-3.292-12.549c-1.439-6.995-3.977-9.669-9.531-9.669h-4.8v22.218h-7.886v-51.773
		c3.359-0.617,8.022-1.097,12.754-1.097c6.857,0,11.657,1.234,14.949,4.183c2.743,2.4,4.183,6.035,4.183,10.286
		c0,6.72-4.114,11.314-9.395,13.303V243.703z M320.311,240.48c6.583,0,10.697-3.771,10.697-9.395c0-6.789-4.8-9.12-10.492-9.12
		c-2.674,0-4.594,0.206-5.554,0.48v18.035H320.311z"/>
</g>
<g>
	<path fill="#2660AD" d="M392.109,241.92c0,18.241-9.806,27.498-22.56,27.498c-13.372,0-21.943-10.834-21.943-26.675
		c0-16.526,9.188-27.361,22.629-27.361C384.155,215.382,392.109,226.834,392.109,241.92z M355.972,242.537
		c0,10.629,4.801,20.366,13.852,20.366c9.189,0,13.921-9.532,13.921-20.709c0-10.012-4.389-20.297-13.783-20.297
		C360.292,221.897,355.972,232.251,355.972,242.537z"/>
</g>
<g>
	<path fill="#2660AD" d="M458.149,216.205l-13.44,52.459h-8.297l-5.692-25.304c-1.371-6.103-2.399-11.383-3.017-17.006h-0.206
		c-0.823,5.623-1.988,10.766-3.565,17.006l-6.24,25.304h-8.366l-12.274-52.459h8.435l5.211,24.961
		c1.304,6.446,2.469,12.892,3.36,18.309h0.138c0.822-5.623,2.331-11.794,3.84-18.446L424,216.205h7.954l5.486,24.961
		c1.303,6.171,2.537,12.206,3.291,18.24h0.206c0.892-6.171,2.126-12.069,3.497-18.446l5.623-24.755H458.149z"/>
</g>
<g>
	<path fill="#3E3A39" d="M295.207,283.688c-1.715-0.96-5.006-2.331-9.326-2.331c-6.24,0-8.846,3.635-8.846,6.994
		c0,4.458,2.948,6.652,9.6,9.532c8.435,3.703,12.48,8.297,12.48,15.497c0,8.777-6.514,15.36-18.309,15.36
		c-4.938,0-10.148-1.439-12.687-3.154l1.783-6.651c2.812,1.714,7.063,3.086,11.383,3.086c6.24,0,9.737-3.224,9.737-7.955
		c0-4.457-2.674-7.2-8.914-9.806c-7.817-3.154-13.098-7.886-13.098-15.018c0-8.297,6.651-14.537,17.075-14.537
		c5.006,0,8.777,1.234,11.04,2.399L295.207,283.688z"/>
	<path fill="#3E3A39" d="M349.314,301.242c0,18.241-9.807,27.498-22.561,27.498c-13.372,0-21.943-10.834-21.943-26.675
		c0-16.526,9.188-27.36,22.629-27.36C341.359,274.705,349.314,286.156,349.314,301.242z M313.176,301.859
		c0,10.629,4.801,20.366,13.852,20.366c9.189,0,13.921-9.531,13.921-20.709c0-10.012-4.389-20.297-13.783-20.297
		C317.496,281.22,313.176,291.574,313.176,301.859z"/>
	<path fill="#3E3A39" d="M357.479,327.986v-52.459h27.292v6.652h-19.338v16.183h17.966v6.583h-17.966v23.041H357.479z"/>
	<path fill="#3E3A39" d="M424.889,282.316h-14.194v45.67h-7.955v-45.67h-14.126v-6.789h36.275V282.316z"/>
</g>
<path fill="#2660AD" d="M60.768,270.935c0,41.673,33.781,75.454,75.454,75.454c41.672,0,75.454-33.781,75.454-75.454
	c0-41.672-33.782-75.454-75.454-75.454C94.548,195.48,60.768,229.263,60.768,270.935"/>
<path fill="#FFFFFF" d="M127.171,266.546c4.305,19.284,23.431,31.424,42.715,27.118c19.281-4.309,31.423-23.434,27.115-42.715
	c-4.308-19.285-23.431-31.426-42.714-27.118C135.004,228.14,122.863,247.261,127.171,266.546"/>
<path fill="#FFFFFF" d="M80.263,290.305c2.747,12.298,42.872,13.8,89.622,3.357c46.75-10.441,82.421-28.879,79.673-41.174
	c-2.745-12.298-42.87-13.803-89.622-3.359C113.187,259.571,77.517,278.006,80.263,290.305"/>
<path fill="#2660AD" d="M92.581,295.596c1.801,8.066,36.412,7.201,77.305-1.933c40.892-9.134,72.582-23.079,70.781-31.146
	s-36.412-7.2-77.307,1.934C122.466,273.586,90.779,287.53,92.581,295.596"/>
<path fill="#FFFFFF" d="M138.293,295.539c0.724,3.247,14.658,2.9,31.123-0.777c16.462-3.678,29.217-9.291,28.493-12.539
	c-0.724-3.248-14.658-2.897-31.122,0.778C150.325,286.677,137.569,292.292,138.293,295.539"/>
<path fill="#2660AD" d="M229.704,239.269c-6.086,0-11.036-4.951-11.036-11.037c0-6.083,4.95-11.034,11.036-11.034
	s11.033,4.951,11.033,11.034C240.737,234.317,235.79,239.269,229.704,239.269 M229.704,220.466c-4.282,0-7.767,3.484-7.767,7.766
	c0,4.282,3.484,7.769,7.767,7.769s7.766-3.487,7.766-7.769C237.47,223.95,233.986,220.466,229.704,220.466"/>
<path fill="#2660AD" d="M226.181,232.954v-9.443h4.286c0.798,0,1.403,0.078,1.825,0.233c0.419,0.154,0.759,0.441,1.015,0.859
	c0.258,0.417,0.387,0.929,0.387,1.528c0,0.527-0.099,0.979-0.295,1.356c-0.197,0.383-0.468,0.69-0.813,0.924
	c-0.222,0.15-0.52,0.275-0.904,0.374c0.308,0.116,0.531,0.233,0.671,0.348c0.094,0.078,0.231,0.244,0.41,0.497
	c0.181,0.254,0.301,0.449,0.361,0.587l1.244,2.736h-2.906l-1.373-2.884c-0.174-0.374-0.331-0.617-0.467-0.729
	c-0.187-0.147-0.396-0.219-0.63-0.219h-0.228v3.832H226.181z M228.765,227.337h1.085c0.117,0,0.345-0.043,0.682-0.129
	c0.17-0.039,0.31-0.138,0.418-0.297c0.106-0.158,0.16-0.339,0.16-0.548c0-0.303-0.084-0.537-0.255-0.7
	c-0.17-0.164-0.49-0.245-0.96-0.245h-1.13V227.337z"/>
</svg>
