<?xml version="1.0" encoding="utf-8"?>
<!-- Generator: Adobe Illustrator 16.0.0, SVG Export Plug-In . SVG Version: 6.00 Build 0)  -->
<!DOCTYPE svg PUBLIC "-//W3C//DTD SVG 1.1//EN" "http://www.w3.org/Graphics/SVG/1.1/DTD/svg11.dtd">
<svg version="1.1" id="图层_1" xmlns="http://www.w3.org/2000/svg" xmlns:xlink="http://www.w3.org/1999/xlink" x="0px" y="0px"
	 width="128px" height="128px" viewBox="0 0 128 128" enable-background="new 0 0 128 128" xml:space="preserve">
<g>
	<path fill="#EA5514" d="M75.551,68.403h-8.303V53.169h7.965v1.938h-5.66v4.396h5.34v1.914h-5.34v5.054h5.998V68.403z"/>
</g>
<g>
	<path fill="#EA5514" d="M84.347,61.156c1.134,0.417,1.776,1.497,2.13,3.103c0.455,1.994,0.839,3.563,1.131,4.145h-2.391
		c-0.208-0.439-0.571-1.771-0.957-3.643c-0.41-2.035-1.147-2.809-2.758-2.809h-1.397v6.451h-2.291V53.375
		c0.974-0.18,2.331-0.318,3.704-0.318c1.994,0,3.387,0.354,4.342,1.214c0.805,0.693,1.207,1.754,1.207,2.985
		c0,1.949-1.182,3.284-2.72,3.864V61.156z M81.661,60.219c1.909,0,3.1-1.092,3.1-2.726c0-1.969-1.395-2.645-3.049-2.645
		c-0.772,0-1.328,0.06-1.607,0.141v5.229H81.661z"/>
</g>
<g>
	<path fill="#EA5514" d="M102.504,60.643c0,5.288-2.856,7.98-6.556,7.98c-3.879,0-6.364-3.15-6.364-7.745
		c0-4.798,2.662-7.944,6.568-7.944C100.189,52.934,102.504,56.26,102.504,60.643z M92.011,60.818c0,3.085,1.385,5.911,4.014,5.911
		c2.668,0,4.048-2.765,4.048-6.014c0-2.9-1.275-5.893-4.004-5.893C93.271,54.823,92.011,57.837,92.011,60.818z"/>
</g>
<g>
	<path fill="#EA5514" d="M121.67,53.169l-3.906,15.234h-2.404l-1.658-7.35c-0.395-1.771-0.692-3.304-0.876-4.935h-0.062
		c-0.228,1.631-0.573,3.131-1.031,4.935l-1.81,7.35h-2.427l-3.571-15.234h2.452l1.519,7.25c0.371,1.871,0.709,3.745,0.975,5.314
		h0.031c0.243-1.631,0.676-3.418,1.126-5.355l1.73-7.209h2.307l1.6,7.25c0.371,1.793,0.723,3.546,0.944,5.297h0.06
		c0.261-1.795,0.619-3.504,1.014-5.355l1.641-7.191H121.67z"/>
</g>
<g>
	<path fill="#3E3A39" d="M74.378,72.758c-0.499-0.278-1.454-0.676-2.708-0.676c-1.815,0-2.565,1.048-2.565,2.027
		c0,1.301,0.854,1.93,2.78,2.772c2.449,1.073,3.622,2.407,3.622,4.487c0,2.55-1.882,4.471-5.314,4.471
		c-1.434,0-2.944-0.425-3.691-0.925l0.522-1.923c0.821,0.499,2.063,0.901,3.305,0.901c1.817,0,2.821-0.946,2.821-2.323
		c0-1.284-0.765-2.088-2.573-2.84c-2.268-0.921-3.804-2.289-3.804-4.367c0-2.401,1.925-4.213,4.962-4.213
		c1.44,0,2.541,0.363,3.191,0.701L74.378,72.758z"/>
	<path fill="#3E3A39" d="M90.073,77.862c0,5.276-2.837,7.978-6.536,7.978c-3.891,0-6.384-3.145-6.384-7.752
		c0-4.79,2.675-7.938,6.576-7.938C87.767,70.15,90.073,73.476,90.073,77.862z M79.59,78.033c0,3.088,1.393,5.902,4.02,5.902
		c2.67,0,4.044-2.761,4.044-5.998c0-2.903-1.279-5.896-3.996-5.896C80.842,72.041,79.59,75.039,79.59,78.033z"/>
	<path fill="#3E3A39" d="M92.443,85.616V70.391h7.923v1.927H94.76v4.702h5.212v1.915H94.76v6.682H92.443z"/>
	<path fill="#3E3A39" d="M112.012,72.358h-4.116v13.258h-2.314V72.358h-4.099v-1.968h10.529V72.358z"/>
</g>
<path fill="#EA5514" d="M6.33,69.064c0,12.096,9.81,21.896,21.902,21.896c12.091,0,21.893-9.801,21.893-21.896
	c0-12.099-9.802-21.902-21.893-21.902C16.14,47.162,6.33,56.966,6.33,69.064"/>
<path fill="#FFFFFF" d="M25.602,67.786c1.254,5.597,6.802,9.121,12.397,7.867c5.604-1.247,9.116-6.796,7.869-12.391
	c-1.252-5.599-6.794-9.123-12.388-7.874C27.877,56.636,24.354,62.19,25.602,67.786"/>
<path fill="#FFFFFF" d="M11.99,74.673c0.796,3.578,12.446,4.019,26.009,0.98c13.57-3.031,23.92-8.373,23.131-11.947
	c-0.804-3.565-12.44-4.007-26.009-0.973C21.547,65.767,11.196,71.111,11.99,74.673"/>
<path fill="#EA5514" d="M15.566,76.215c0.522,2.34,10.572,2.094,22.433-0.562c11.873-2.652,21.065-6.692,20.543-9.037
	c-0.522-2.341-10.572-2.089-22.433,0.563C24.242,69.829,15.044,73.875,15.566,76.215"/>
<path fill="#FFFFFF" d="M28.832,76.215c0.21,0.928,4.262,0.836,9.031-0.239c4.776-1.07,8.476-2.688,8.271-3.633
	c-0.218-0.955-4.255-0.852-9.037,0.215C32.331,73.626,28.622,75.26,28.832,76.215"/>
<path fill="#EA5514" d="M55.355,59.872c-1.759,0-3.2-1.438-3.2-3.211c0-1.762,1.441-3.197,3.2-3.197c1.764,0,3.21,1.436,3.21,3.197
	C58.565,58.435,57.119,59.872,55.355,59.872 M55.355,54.414c-1.242,0-2.256,1.014-2.256,2.247c0,1.249,1.014,2.259,2.256,2.259
	s2.256-1.01,2.256-2.259C57.611,55.428,56.598,54.414,55.355,54.414"/>
<path fill="#EA5514" d="M54.334,58.035v-2.741h1.241c0.246,0,0.417,0.023,0.53,0.069c0.12,0.047,0.225,0.128,0.305,0.251
	c0.071,0.126,0.112,0.269,0.112,0.44c0,0.154-0.025,0.286-0.095,0.395c-0.051,0.114-0.131,0.204-0.235,0.271
	c-0.059,0.042-0.153,0.082-0.262,0.105c0.093,0.034,0.159,0.068,0.192,0.102c0.028,0.031,0.069,0.072,0.12,0.142
	c0.069,0.079,0.095,0.135,0.108,0.174l0.363,0.793h-0.843l-0.407-0.832c-0.051-0.111-0.084-0.182-0.117-0.222
	c-0.07-0.03-0.118-0.055-0.192-0.055h-0.071v1.108H54.334z M55.084,56.407h0.313c0.035,0,0.12-0.015,0.202-0.033
	c0.056-0.012,0.095-0.051,0.136-0.089c0.018-0.049,0.043-0.101,0.043-0.159c0-0.09-0.033-0.156-0.076-0.204
	c-0.056-0.049-0.151-0.07-0.287-0.07h-0.33V56.407z"/>
</svg>
