<?xml version="1.0" encoding="utf-8"?>
<!-- Generator: Adobe Illustrator 16.0.0, SVG Export Plug-In . SVG Version: 6.00 Build 0)  -->
<!DOCTYPE svg PUBLIC "-//W3C//DTD SVG 1.1//EN" "http://www.w3.org/Graphics/SVG/1.1/DTD/svg11.dtd">
<svg version="1.1" id="图层_1" xmlns="http://www.w3.org/2000/svg" xmlns:xlink="http://www.w3.org/1999/xlink" x="0px" y="0px"
	 width="48px" height="48px" viewBox="0 0 48 48" enable-background="new 0 0 48 48" xml:space="preserve">
<g>
	<path fill="#EA5514" d="M28.626,26.237h-2.904v-5.328h2.786v0.678h-1.979v1.538h1.867v0.669h-1.867v1.768h2.098V26.237z"/>
</g>
<g>
	<path fill="#EA5514" d="M31.702,23.703c0.396,0.146,0.621,0.523,0.745,1.085c0.159,0.697,0.293,1.246,0.396,1.449h-0.836
		c-0.073-0.153-0.2-0.619-0.335-1.273c-0.144-0.712-0.401-0.982-0.965-0.982h-0.488v2.256h-0.802v-5.256
		c0.341-0.063,0.815-0.111,1.296-0.111c0.697,0,1.185,0.124,1.519,0.425c0.281,0.242,0.422,0.613,0.422,1.044
		c0,0.682-0.413,1.148-0.951,1.352V23.703z M30.763,23.375c0.668,0,1.084-0.382,1.084-0.953c0-0.688-0.487-0.925-1.066-0.925
		c-0.27,0-0.464,0.021-0.562,0.049v1.829H30.763z"/>
</g>
<g>
	<path fill="#EA5514" d="M38.053,23.523c0,1.85-0.999,2.791-2.293,2.791c-1.356,0-2.226-1.102-2.226-2.709
		c0-1.678,0.931-2.778,2.297-2.778C37.243,20.827,38.053,21.99,38.053,23.523z M34.383,23.585c0,1.079,0.484,2.067,1.403,2.067
		c0.934,0,1.416-0.967,1.416-2.104c0-1.015-0.446-2.061-1.4-2.061C34.823,21.488,34.383,22.542,34.383,23.585z"/>
</g>
<g>
	<path fill="#EA5514" d="M44.756,20.909l-1.366,5.328h-0.841l-0.58-2.57c-0.138-0.619-0.242-1.155-0.307-1.726h-0.021
		c-0.079,0.57-0.2,1.095-0.36,1.726l-0.633,2.57h-0.849l-1.249-5.328h0.857l0.531,2.536c0.13,0.654,0.248,1.31,0.341,1.858h0.011
		c0.085-0.57,0.236-1.195,0.394-1.873l0.605-2.521h0.807l0.56,2.536c0.13,0.627,0.253,1.24,0.33,1.853h0.021
		c0.091-0.628,0.216-1.226,0.354-1.873l0.573-2.516H44.756z"/>
</g>
<g>
	<path fill="#3E3A39" d="M28.216,27.761c-0.175-0.098-0.509-0.236-0.947-0.236c-0.635,0-0.897,0.366-0.897,0.709
		c0,0.455,0.299,0.675,0.973,0.97c0.856,0.375,1.267,0.842,1.267,1.569c0,0.892-0.658,1.563-1.858,1.563
		c-0.502,0-1.03-0.148-1.291-0.323l0.183-0.673c0.287,0.175,0.722,0.315,1.155,0.315c0.636,0,0.987-0.331,0.987-0.813
		c0-0.449-0.268-0.73-0.9-0.993c-0.793-0.322-1.33-0.801-1.33-1.527c0-0.84,0.673-1.474,1.735-1.474
		c0.504,0,0.889,0.127,1.116,0.245L28.216,27.761z"/>
	<path fill="#3E3A39" d="M33.705,29.546c0,1.846-0.992,2.79-2.286,2.79c-1.36,0-2.232-1.1-2.232-2.711
		c0-1.676,0.936-2.776,2.3-2.776C32.898,26.849,33.705,28.012,33.705,29.546z M30.038,29.605c0,1.08,0.487,2.064,1.406,2.064
		c0.934,0,1.414-0.966,1.414-2.098c0-1.016-0.447-2.063-1.397-2.063C30.477,27.51,30.038,28.559,30.038,29.605z"/>
	<path fill="#3E3A39" d="M34.534,32.258v-5.325h2.771v0.674h-1.961v1.645h1.823v0.67h-1.823v2.337H34.534z"/>
	<path fill="#3E3A39" d="M41.378,27.621h-1.439v4.637h-0.81v-4.637h-1.434v-0.688h3.683V27.621z"/>
</g>
<path fill="#EA5514" d="M4.416,26.469c0,4.23,3.431,7.658,7.66,7.658c4.229,0,7.657-3.428,7.657-7.658
	c0-4.231-3.429-7.66-7.657-7.66C7.847,18.809,4.416,22.237,4.416,26.469"/>
<path fill="#FFFFFF" d="M11.156,26.021c0.438,1.958,2.379,3.19,4.336,2.752c1.96-0.437,3.188-2.377,2.752-4.334
	c-0.438-1.958-2.376-3.19-4.332-2.754C11.952,22.122,10.72,24.064,11.156,26.021"/>
<path fill="#FFFFFF" d="M6.396,28.431c0.278,1.251,4.354,1.405,9.097,0.343c4.746-1.061,8.366-2.929,8.09-4.179
	c-0.281-1.247-4.351-1.401-9.097-0.34C9.738,25.315,6.118,27.185,6.396,28.431"/>
<path fill="#EA5514" d="M7.646,28.97c0.183,0.818,3.697,0.732,7.846-0.196c4.152-0.928,7.367-2.341,7.185-3.161
	c-0.183-0.818-3.697-0.73-7.846,0.197C10.681,26.736,7.464,28.151,7.646,28.97"/>
<path fill="#FFFFFF" d="M12.286,28.97c0.073,0.324,1.49,0.292,3.158-0.084c1.671-0.374,2.965-0.939,2.894-1.271
	c-0.076-0.334-1.488-0.298-3.161,0.075C13.51,28.064,12.213,28.636,12.286,28.97"/>
<path fill="#EA5514" d="M21.563,23.254c-0.615,0-1.119-0.503-1.119-1.123c0-0.616,0.504-1.118,1.119-1.118
	c0.617,0,1.123,0.502,1.123,1.118C22.686,22.751,22.18,23.254,21.563,23.254 M21.563,21.345c-0.435,0-0.789,0.354-0.789,0.786
	c0,0.437,0.354,0.79,0.789,0.79s0.789-0.354,0.789-0.79C22.352,21.699,21.997,21.345,21.563,21.345"/>
<path fill="#EA5514" d="M21.205,22.611v-0.959h0.435c0.086,0,0.146,0.009,0.186,0.024c0.042,0.017,0.078,0.045,0.106,0.088
	c0.024,0.044,0.039,0.094,0.039,0.154c0,0.054-0.009,0.1-0.033,0.138c-0.018,0.04-0.046,0.071-0.082,0.095
	c-0.021,0.015-0.054,0.028-0.092,0.037c0.032,0.012,0.056,0.023,0.067,0.035c0.01,0.011,0.024,0.025,0.042,0.05
	c0.024,0.027,0.033,0.047,0.038,0.061l0.127,0.277h-0.295l-0.143-0.291c-0.018-0.039-0.029-0.063-0.041-0.077
	c-0.024-0.011-0.041-0.02-0.067-0.02h-0.024v0.388H21.205z M21.468,22.042h0.109c0.012,0,0.042-0.005,0.07-0.012
	c0.02-0.004,0.033-0.018,0.048-0.031c0.006-0.017,0.015-0.035,0.015-0.056c0-0.031-0.012-0.055-0.026-0.071
	c-0.02-0.017-0.053-0.024-0.101-0.024h-0.115V22.042z"/>
</svg>
