<svg width="1024" height="1024" xmlns="http://www.w3.org/2000/svg">

 <g>
  <title>background</title>
  <rect fill="none" id="canvas_background" height="1026" width="1026" y="-1" x="-1"/>
 </g>
 <g>
  <title>Layer 1</title>
  <g stroke="null" id="svg_21">
   <g stroke="null" id="svg_1">
    <path stroke-width="0" stroke="null" id="svg_2" d="m612.481937,505.485224l-72.921528,0l0,-150.488518l69.948053,0l0,19.082514l-49.664163,0l0,43.472102l46.866649,0l0,18.884575l-46.866649,0l0,49.966812l52.637638,0l0,19.082514z" fill="#2660AD"/>
   </g>
   <g stroke="null" id="svg_3">
    <path stroke-width="0" stroke="null" id="svg_4" d="m689.787172,433.879896c9.968535,4.130911 15.566113,14.753664 18.712998,30.686359c4.021586,19.670596 7.344431,35.21028 9.965985,40.91897l-20.985181,0c-1.925363,-4.328851 -5.069697,-17.510473 -8.395092,-35.999169c-3.669665,-20.066475 -10.141945,-27.737347 -24.305476,-27.737347l-12.240718,0l0,63.736516l-20.11048,0l0,-148.520598c8.565952,-1.769981 20.4573,-3.146951 32.524608,-3.146951c17.486376,0 29.727094,3.539961 38.122186,11.999723c6.99506,6.884852 10.667276,17.312534 10.667276,29.507328c0,19.277585 -10.491315,32.456339 -23.958655,38.16216l0,0.39301l0.00255,0zm-23.604185,-9.245782c16.787635,0 27.27895,-10.817823 27.27895,-26.951326c0,-19.475525 -12.240718,-26.162437 -26.75617,-26.162437c-6.8191,0 -11.715387,0.59095 -14.163531,1.37697l0,51.736793l13.64075,0z" fill="#2660AD"/>
   </g>
   <g stroke="null" id="svg_5">
    <path stroke-width="0" stroke="null" id="svg_6" d="m849.278628,428.765024c0,52.327743 -25.006767,78.88319 -57.531375,78.88319c-34.1006,0 -55.957933,-31.079369 -55.957933,-76.52226c0,-47.407942 23.430774,-78.49018 57.707335,-78.49018c35.498082,0 55.781972,32.852218 55.781972,76.12925zm-92.154756,1.769981c0,30.491288 12.243268,58.423705 35.324672,58.423705c23.433325,0 35.500633,-27.344337 35.500633,-59.407666c0,-28.721307 -11.192607,-58.225766 -35.148712,-58.225766c-24.659947,0 -35.676593,29.702398 -35.676593,59.209726z" fill="#2660AD"/>
   </g>
   <g stroke="null" id="svg_7">
    <path stroke-width="0" stroke="null" id="svg_8" d="m1017.690507,354.996705l-34.274011,150.488518l-21.158591,0l-14.515452,-72.589288c-3.496255,-17.507605 -6.117809,-32.654279 -7.693801,-48.784913l-0.525331,0c-2.098773,16.130634 -5.069697,30.884298 -9.091283,48.784913l-15.912933,72.589288l-21.334552,0l-31.300536,-150.488518l21.510512,0l13.28883,71.605328c3.325395,18.491565 6.296319,36.983129 8.568503,52.522814l0.351921,0c2.096223,-16.130634 5.944399,-33.83331 9.792574,-52.915824l15.209092,-71.212318l20.28389,0l13.990121,71.605328c3.322845,17.702675 6.46973,35.015209 8.392542,52.324874l0.525331,0c2.274733,-17.702675 5.421618,-34.622199 8.917873,-52.915824l14.339491,-71.014378l20.635811,0z" fill="#2660AD"/>
   </g>
   <g stroke="null" id="svg_9">
    <path stroke-width="0" stroke="null" id="svg_10" d="m602.164032,548.584396c-4.373507,-2.753941 -12.766049,-6.686912 -23.782695,-6.686912c-15.912933,0 -22.558623,10.427682 -22.558623,20.063606c0,12.788612 7.517841,19.082514 24.481436,27.344337c21.510512,10.622753 31.825867,23.801507 31.825867,44.456062c0,25.178477 -16.611674,44.063052 -46.690689,44.063052c-12.592639,0 -25.878918,-4.128042 -32.353748,-9.047843l4.546917,-19.079646c7.171021,4.916932 18.011707,8.852772 29.028353,8.852772c15.912933,0 24.830807,-9.248651 24.830807,-22.820415c0,-12.785744 -6.8191,-20.654556 -22.732034,-28.130357c-19.934519,-9.047843 -33.401859,-22.622476 -33.401859,-43.081961c0,-23.801507 16.961045,-41.702122 43.543804,-41.702122c12.766049,0 22.382663,3.539961 28.153652,6.881983l-4.891187,18.887444z" fill="#3E3A39"/>
    <path stroke-width="0" stroke="null" id="svg_11" d="m740.144976,598.94135c0,52.327743 -25.009317,78.88319 -57.533925,78.88319c-34.1006,0 -55.957933,-31.079369 -55.957933,-76.52226c0,-47.407942 23.430774,-78.487311 57.707335,-78.487311c35.498082,0 55.784522,32.849349 55.784522,76.126381zm-92.157306,1.769981c0,30.491288 12.243268,58.423705 35.324672,58.423705c23.433325,0 35.500633,-27.341468 35.500633,-59.407666c0,-28.721307 -11.192607,-58.225766 -35.148712,-58.225766c-24.659947,0.002869 -35.676593,29.705267 -35.676593,59.209726z" fill="#3E3A39"/>
    <path stroke-width="0" stroke="null" id="svg_12" d="m760.966947,675.66155l0,-150.488518l69.598683,0l0,19.082514l-49.314793,0l0,46.423982l45.815988,0l0,18.884575l-45.815988,0l0,66.097447l-20.28389,0z" fill="#3E3A39"/>
    <path stroke-width="0" stroke="null" id="svg_13" d="m932.872531,544.648556l-36.196823,0l0,131.012994l-20.28644,0l0,-131.012994l-36.023413,0l0,-19.475525l92.506677,0l0,19.475525z" fill="#3E3A39"/>
   </g>
   <path stroke-width="0" stroke="null" id="svg_14" d="m4.30951,512.000015c0,119.546847 86.146604,216.454005 192.418988,216.454005c106.269834,0 192.418988,-96.907159 192.418988,-216.454005c0,-119.543978 -86.149154,-216.454005 -192.418988,-216.454005c-106.274934,-0.002869 -192.418988,96.910027 -192.418988,216.454005" fill="#2660AD"/>
   <path stroke-width="0" stroke="null" id="svg_15" d="m173.647094,499.409342c10.978394,55.319785 59.752555,90.14566 108.92964,77.793089c49.169434,-12.361178 80.133351,-67.224841 69.147306,-122.53602c-10.986044,-55.322653 -59.752555,-90.151398 -108.92709,-77.793089c-49.174535,12.361178 -80.135901,67.213366 -69.149856,122.53602" fill="#FFFFFF"/>
   <path stroke-width="0" stroke="null" id="svg_16" d="m54.024677,567.566507c7.005261,35.279128 109.330014,39.587898 228.549507,9.630187c119.219494,-29.951974 210.18588,-82.844849 203.178069,-118.115371c-7.000161,-35.279128 -109.324913,-39.596504 -228.549507,-9.635924c-119.216943,29.954843 -210.18078,82.839111 -203.178069,118.121109" fill="#FFFFFF"/>
   <path stroke-width="0" stroke="null" id="svg_17" d="m85.437419,582.744736c4.592819,23.13884 92.856047,20.657424 197.139315,-5.545174c104.280717,-26.202599 185.094958,-66.206457 180.502139,-89.348165s-92.856047,-20.654556 -197.144415,5.548043c-104.285818,26.205467 -185.092408,66.206457 -180.497038,89.345296" fill="#2660AD"/>
   <path stroke-width="0" stroke="null" id="svg_18" d="m202.009858,582.581221c1.846308,9.314631 37.380093,8.319196 79.368306,-2.228971c41.980563,-10.551035 74.507721,-26.652983 72.661412,-35.970482c-1.846308,-9.3175 -37.380093,-8.31059 -79.365756,2.231839c-41.980563,10.545298 -74.510271,26.652983 -72.663963,35.967614" fill="#FFFFFF"/>
   <path stroke-width="0" stroke="null" id="svg_19" d="m435.121582,421.160132c-15.52021,0 -28.143451,-14.202876 -28.143451,-31.661713c0,-17.450231 12.623241,-31.653106 28.143451,-31.653106s28.1358,14.202876 28.1358,31.653106c0,17.455968 -12.61559,31.661713 -28.1358,31.661713m0,-53.939946c-10.919741,0 -19.807012,9.99451 -19.807012,22.278233c0,12.283723 8.884721,22.286839 19.807012,22.286839s19.804462,-10.003116 19.804462,-22.286839c0,-12.283723 -8.884721,-22.278233 -19.804462,-22.278233" fill="#2660AD"/>
   <path stroke-width="0" stroke="null" id="svg_20" d="m426.137405,403.044365l0,-27.089023l10.929941,0c2.035019,0 3.57786,0.223758 4.654023,0.668404c1.068513,0.441778 1.935564,1.265092 2.588402,2.464203c0.657939,1.196243 0.986908,2.665011 0.986908,4.383356c0,1.511799 -0.252465,2.808446 -0.752294,3.889941c-0.502379,1.098708 -1.19347,1.979395 -2.073272,2.650668c-0.566133,0.430303 -1.326078,0.788889 -2.305335,1.072889c0.785446,0.332768 1.354129,0.668404 1.71115,0.998304c0.239714,0.223758 0.589085,0.69996 1.045561,1.425738c0.461577,0.728647 0.767595,1.288041 0.920604,1.68392l3.172386,7.848731l-7.410735,0l-3.501355,-8.273297c-0.443726,-1.072889 -0.8441,-1.769981 -1.19092,-2.091274c-0.476878,-0.421697 -1.009859,-0.628243 -1.606594,-0.628243l-0.581434,0l0,10.992813l-6.587036,0l0,0.002869zm6.589587,-16.113422l2.766912,0c0.298368,0 0.879802,-0.123354 1.739202,-0.370061c0.433525,-0.111879 0.790546,-0.395879 1.065963,-0.852c0.270316,-0.453253 0.408024,-0.972485 0.408024,-1.572041c0,-0.869213 -0.214213,-1.540486 -0.650288,-2.008082c-0.433525,-0.470465 -1.249573,-0.702829 -2.448144,-0.702829l-2.881669,0l0,5.505013z" fill="#2660AD"/>
  </g>
 </g>
</svg>