<?xml version="1.0" encoding="utf-8"?>
<!-- Generator: Adobe Illustrator 16.0.0, SVG Export Plug-In . SVG Version: 6.00 Build 0)  -->
<!DOCTYPE svg PUBLIC "-//W3C//DTD SVG 1.1//EN" "http://www.w3.org/Graphics/SVG/1.1/DTD/svg11.dtd">
<svg version="1.1" id="图层_1" xmlns="http://www.w3.org/2000/svg" xmlns:xlink="http://www.w3.org/1999/xlink" x="0px" y="0px"
	 width="16px" height="16px" viewBox="0 0 16 16" enable-background="new 0 0 16 16" xml:space="preserve">
<g>
	<path fill="#EA5514" d="M9.905,8.212h-0.96v-1.76h0.921v0.224H9.212v0.508h0.617v0.221H9.212v0.584h0.693V8.212z"/>
</g>
<g>
	<path fill="#EA5514" d="M10.922,7.375c0.131,0.048,0.205,0.173,0.246,0.359c0.053,0.23,0.097,0.412,0.131,0.479h-0.276
		c-0.024-0.051-0.066-0.205-0.11-0.421c-0.048-0.235-0.133-0.324-0.319-0.324h-0.161v0.745h-0.265V6.476
		c0.112-0.021,0.27-0.037,0.428-0.037c0.23,0,0.392,0.041,0.502,0.14c0.093,0.081,0.14,0.203,0.14,0.345
		c0,0.226-0.137,0.38-0.314,0.447V7.375z M10.611,7.267c0.221,0,0.358-0.126,0.358-0.315c0-0.228-0.161-0.306-0.353-0.306
		c-0.089,0-0.153,0.007-0.186,0.016v0.604H10.611z"/>
</g>
<g>
	<path fill="#EA5514" d="M13.021,7.315c0,0.612-0.33,0.922-0.758,0.922c-0.448,0-0.735-0.364-0.735-0.895
		c0-0.554,0.308-0.918,0.759-0.918C12.753,6.425,13.021,6.809,13.021,7.315z M11.808,7.336c0,0.356,0.16,0.684,0.464,0.684
		c0.309,0,0.468-0.32,0.468-0.695c0-0.335-0.147-0.681-0.463-0.681C11.953,6.644,11.808,6.991,11.808,7.336z"/>
</g>
<g>
	<path fill="#EA5514" d="M15.235,6.452l-0.451,1.76h-0.278l-0.191-0.849c-0.046-0.205-0.08-0.382-0.102-0.57h-0.007
		c-0.026,0.188-0.066,0.361-0.119,0.57l-0.209,0.849h-0.28l-0.413-1.76h0.283l0.176,0.837c0.043,0.217,0.082,0.433,0.112,0.615
		h0.004c0.028-0.188,0.078-0.396,0.13-0.619l0.2-0.833h0.267l0.185,0.837c0.043,0.208,0.084,0.41,0.109,0.612h0.007
		c0.03-0.207,0.071-0.405,0.117-0.619l0.189-0.831H15.235z"/>
</g>
<g>
	<path fill="#3E3A39" d="M9.77,8.716C9.712,8.684,9.602,8.638,9.457,8.638c-0.21,0-0.297,0.121-0.297,0.234
		c0,0.15,0.099,0.223,0.321,0.32C9.765,9.316,9.9,9.471,9.9,9.711c0,0.295-0.218,0.517-0.614,0.517
		c-0.166,0-0.341-0.049-0.427-0.106L8.92,9.898c0.095,0.058,0.238,0.104,0.382,0.104c0.21,0,0.326-0.109,0.326-0.269
		c0-0.148-0.089-0.241-0.298-0.328C9.068,9.3,8.891,9.142,8.891,8.901c0-0.277,0.223-0.487,0.573-0.487
		c0.167,0,0.294,0.042,0.369,0.081L9.77,8.716z"/>
	<path fill="#3E3A39" d="M11.584,9.306c0,0.61-0.328,0.922-0.756,0.922c-0.449,0-0.737-0.363-0.737-0.896
		c0-0.554,0.309-0.917,0.76-0.917C11.317,8.415,11.584,8.799,11.584,9.306z M10.372,9.325c0,0.357,0.161,0.683,0.465,0.683
		c0.309,0,0.467-0.319,0.467-0.693c0-0.336-0.147-0.682-0.462-0.682C10.517,8.633,10.372,8.979,10.372,9.325z"/>
	<path fill="#3E3A39" d="M11.857,10.202v-1.76h0.916v0.223h-0.648v0.543h0.603V9.43h-0.603v0.772H11.857z"/>
	<path fill="#3E3A39" d="M14.119,8.67h-0.476v1.532h-0.268V8.67h-0.474V8.442h1.217V8.67z"/>
</g>
<path fill="#EA5514" d="M1.905,8.289c0,1.398,1.134,2.531,2.531,2.531s2.53-1.133,2.53-2.531s-1.133-2.531-2.53-2.531
	S1.905,6.891,1.905,8.289"/>
<path fill="#FFFFFF" d="M4.133,8.141c0.145,0.647,0.786,1.054,1.433,0.91c0.647-0.145,1.054-0.786,0.909-1.433
	s-0.785-1.054-1.432-0.91C4.396,6.853,3.988,7.495,4.133,8.141"/>
<path fill="#FFFFFF" d="M2.56,8.938c0.092,0.413,1.438,0.464,3.006,0.113C7.134,8.7,8.33,8.083,8.238,7.67
	C8.146,7.257,6.801,7.207,5.232,7.557S2.468,8.525,2.56,8.938"/>
<path fill="#EA5514" d="M2.973,9.115c0.061,0.271,1.222,0.242,2.593-0.064C6.938,8.744,8,8.277,7.939,8.006
	C7.879,7.735,6.718,7.765,5.347,8.071C3.976,8.377,2.912,8.845,2.973,9.115"/>
<path fill="#FFFFFF" d="M4.506,9.115C4.53,9.223,4.998,9.212,5.55,9.088s0.979-0.311,0.956-0.42C6.48,8.558,6.014,8.569,5.461,8.692
	C4.91,8.816,4.481,9.005,4.506,9.115"/>
<path fill="#EA5514" d="M7.571,7.227c-0.203,0-0.37-0.167-0.37-0.371s0.167-0.37,0.37-0.37c0.204,0,0.371,0.166,0.371,0.37
	S7.775,7.227,7.571,7.227 M7.571,6.596c-0.144,0-0.261,0.117-0.261,0.26c0,0.144,0.117,0.261,0.261,0.261S7.832,7,7.832,6.856
	C7.832,6.713,7.715,6.596,7.571,6.596"/>
<path fill="#EA5514" d="M7.453,7.014V6.698h0.144c0.028,0,0.048,0.003,0.062,0.008c0.014,0.005,0.025,0.015,0.035,0.029
	c0.008,0.015,0.013,0.031,0.013,0.051c0,0.018-0.003,0.033-0.011,0.045C7.689,6.844,7.68,6.854,7.668,6.862
	C7.661,6.867,7.65,6.872,7.638,6.875C7.648,6.878,7.656,6.882,7.66,6.886C7.663,6.89,7.668,6.895,7.674,6.903
	c0.008,0.009,0.011,0.015,0.013,0.02l0.042,0.091H7.631L7.584,6.918C7.578,6.905,7.574,6.897,7.57,6.893
	C7.563,6.889,7.557,6.886,7.548,6.886H7.54v0.128H7.453z M7.54,6.826h0.036c0.004,0,0.014-0.001,0.023-0.004
	C7.605,6.821,7.61,6.817,7.615,6.812C7.617,6.807,7.62,6.8,7.62,6.793c0-0.01-0.004-0.018-0.009-0.023
	C7.604,6.765,7.594,6.762,7.578,6.762H7.54V6.826z"/>
</svg>
