<?xml version="1.0" encoding="utf-8"?>
<!-- Generator: Adobe Illustrator 16.0.0, SVG Export Plug-In . SVG Version: 6.00 Build 0)  -->
<!DOCTYPE svg PUBLIC "-//W3C//DTD SVG 1.1//EN" "http://www.w3.org/Graphics/SVG/1.1/DTD/svg11.dtd">
<svg version="1.1" id="图层_1" xmlns="http://www.w3.org/2000/svg" xmlns:xlink="http://www.w3.org/1999/xlink" x="0px" y="0px"
	 width="32px" height="32px" viewBox="0 0 32 32" enable-background="new 0 0 32 32" xml:space="preserve">
<g>
	<path fill="#EA5514" d="M18.535,15.665h-1.969v-3.61h1.889v0.459h-1.342v1.042h1.266v0.454h-1.266v1.198h1.422V15.665z"/>
</g>
<g>
	<path fill="#EA5514" d="M20.62,13.947c0.269,0.099,0.421,0.354,0.505,0.736c0.107,0.472,0.198,0.844,0.268,0.981h-0.566
		c-0.05-0.104-0.136-0.419-0.227-0.863c-0.098-0.481-0.272-0.665-0.654-0.665h-0.331v1.528h-0.543v-3.562
		c0.23-0.042,0.553-0.075,0.878-0.075c0.473,0,0.803,0.084,1.029,0.288c0.19,0.165,0.286,0.416,0.286,0.707
		c0,0.462-0.28,0.779-0.645,0.916V13.947z M19.983,13.725c0.452,0,0.734-0.259,0.734-0.646c0-0.466-0.33-0.626-0.723-0.626
		c-0.183,0-0.314,0.014-0.381,0.033v1.24H19.983z"/>
</g>
<g>
	<path fill="#EA5514" d="M24.924,13.825c0,1.255-0.677,1.892-1.554,1.892c-0.92,0-1.509-0.746-1.509-1.836
		c0-1.137,0.631-1.883,1.557-1.883C24.375,11.998,24.924,12.787,24.924,13.825z M22.437,13.867c0,0.731,0.328,1.402,0.951,1.402
		c0.633,0,0.96-0.656,0.96-1.426c0-0.688-0.303-1.396-0.949-1.396C22.735,12.447,22.437,13.16,22.437,13.867z"/>
</g>
<g>
	<path fill="#EA5514" d="M29.467,12.054l-0.926,3.61h-0.57l-0.393-1.742c-0.094-0.419-0.164-0.783-0.208-1.169h-0.015
		c-0.054,0.387-0.136,0.741-0.244,1.169l-0.429,1.742h-0.575l-0.847-3.61h0.581l0.36,1.718c0.088,0.444,0.168,0.888,0.23,1.261
		h0.008c0.058-0.387,0.16-0.811,0.267-1.27l0.41-1.708h0.547l0.379,1.718c0.088,0.425,0.172,0.841,0.224,1.256h0.015
		c0.062-0.425,0.146-0.831,0.24-1.269l0.389-1.705H29.467z"/>
</g>
<g>
	<path fill="#3E3A39" d="M18.257,16.697c-0.118-0.066-0.345-0.16-0.642-0.16c-0.431,0-0.608,0.248-0.608,0.48
		c0,0.309,0.202,0.457,0.659,0.657c0.58,0.254,0.858,0.57,0.858,1.063c0,0.604-0.446,1.06-1.26,1.06
		c-0.34,0-0.698-0.101-0.875-0.219l0.124-0.456c0.194,0.118,0.489,0.214,0.783,0.214c0.431,0,0.669-0.225,0.669-0.551
		c0-0.305-0.182-0.495-0.61-0.673c-0.537-0.219-0.901-0.543-0.901-1.035c0-0.569,0.456-0.999,1.176-0.999
		c0.342,0,0.603,0.085,0.757,0.166L18.257,16.697z"/>
	<path fill="#3E3A39" d="M21.978,17.907c0,1.251-0.673,1.891-1.55,1.891c-0.922,0-1.513-0.745-1.513-1.837
		c0-1.136,0.634-1.882,1.559-1.882C21.431,16.079,21.978,16.867,21.978,17.907z M19.492,17.947c0,0.732,0.33,1.399,0.953,1.399
		c0.633,0,0.958-0.654,0.958-1.422c0-0.688-0.303-1.397-0.947-1.397C19.789,16.527,19.492,17.238,19.492,17.947z"/>
	<path fill="#3E3A39" d="M22.539,19.745v-3.609h1.878v0.457h-1.329v1.114h1.235v0.454h-1.235v1.584H22.539z"/>
	<path fill="#3E3A39" d="M27.178,16.603h-0.976v3.143h-0.549v-3.143h-0.972v-0.466h2.496V16.603z"/>
</g>
<path fill="#EA5514" d="M2.127,15.821c0,2.868,2.325,5.191,5.191,5.191s5.189-2.323,5.189-5.191c0-2.867-2.323-5.19-5.189-5.19
	S2.127,12.954,2.127,15.821"/>
<path fill="#FFFFFF" d="M6.695,15.519c0.297,1.327,1.612,2.162,2.938,1.865c1.328-0.296,2.161-1.611,1.865-2.938
	c-0.297-1.327-1.61-2.162-2.937-1.866C7.234,12.876,6.399,14.192,6.695,15.519"/>
<path fill="#FFFFFF" d="M3.469,17.151c0.188,0.848,2.95,0.952,6.165,0.232c3.217-0.719,5.67-1.985,5.482-2.832
	c-0.19-0.846-2.948-0.95-6.165-0.231C5.734,15.04,3.28,16.307,3.469,17.151"/>
<path fill="#EA5514" d="M4.316,17.517c0.124,0.555,2.506,0.496,5.317-0.133c2.814-0.629,4.993-1.587,4.869-2.143
	c-0.124-0.555-2.506-0.495-5.317,0.134C6.373,16.003,4.192,16.962,4.316,17.517"/>
<path fill="#FFFFFF" d="M7.461,17.517c0.05,0.22,1.01,0.198,2.141-0.057c1.132-0.254,2.009-0.637,1.961-0.861
	c-0.052-0.226-1.009-0.202-2.143,0.051C8.29,16.903,7.411,17.29,7.461,17.517"/>
<path fill="#EA5514" d="M13.748,13.643c-0.417,0-0.759-0.341-0.759-0.76c0-0.418,0.342-0.759,0.759-0.759
	c0.418,0,0.761,0.34,0.761,0.759C14.509,13.301,14.166,13.643,13.748,13.643 M13.748,12.349c-0.295,0-0.535,0.24-0.535,0.534
	c0,0.295,0.24,0.535,0.535,0.535c0.294,0,0.534-0.24,0.534-0.535C14.282,12.589,14.042,12.349,13.748,12.349"/>
<path fill="#EA5514" d="M13.506,13.207v-0.649H13.8c0.059,0,0.099,0.006,0.126,0.016c0.028,0.011,0.053,0.031,0.072,0.059
	c0.017,0.03,0.026,0.064,0.026,0.105c0,0.036-0.006,0.067-0.022,0.093c-0.012,0.027-0.031,0.048-0.056,0.064
	c-0.014,0.01-0.036,0.019-0.063,0.025c0.022,0.008,0.038,0.016,0.046,0.024c0.007,0.007,0.017,0.017,0.028,0.034
	c0.017,0.019,0.022,0.031,0.026,0.041l0.086,0.188h-0.2l-0.097-0.197c-0.012-0.026-0.02-0.043-0.027-0.051
	c-0.017-0.009-0.028-0.014-0.046-0.014h-0.017v0.262H13.506z M13.684,12.821h0.074c0.008,0,0.028-0.003,0.048-0.008
	c0.013-0.003,0.022-0.011,0.032-0.022c0.004-0.01,0.01-0.023,0.01-0.037c0-0.021-0.008-0.037-0.018-0.048
	c-0.014-0.011-0.036-0.017-0.068-0.017h-0.078V12.821z"/>
</svg>
