<?xml version="1.0" encoding="UTF-8"?>
<svg xmlns="http://www.w3.org/2000/svg" viewBox="0 0 64 64" width="64" height="64">
  <rect x="2" y="2" width="60" height="60" rx="10" fill="#2e4a2e"/>
  <!-- foreground portrait silhouette -->
  <circle cx="32" cy="22" r="9" fill="#e8e8e8"/>
  <path d="M16 54 a16 16 0 0 1 32 0 Z" fill="#e8e8e8"/>
  <!-- background removed: checker pattern -->
  <rect x="8" y="8" width="8" height="8" fill="#7f8c7f"/>
  <rect x="16" y="16" width="8" height="8" fill="#7f8c7f"/>
  <rect x="24" y="8" width="8" height="8" fill="#7f8c7f"/>
  <rect x="32" y="16" width="8" height="8" fill="#7f8c7f"/>
  <rect x="40" y="8" width="8" height="8" fill="#7f8c7f"/>
  <rect x="48" y="16" width="8" height="8" fill="#7f8c7f"/>
  <rect x="8" y="32" width="8" height="8" fill="#7f8c7f"/>
  <rect x="16" y="40" width="8" height="8" fill="#7f8c7f"/>
  <rect x="24" y="32" width="8" height="8" fill="#7f8c7f"/>
  <rect x="32" y="40" width="8" height="8" fill="#7f8c7f"/>
  <rect x="40" y="32" width="8" height="8" fill="#7f8c7f"/>
  <rect x="48" y="40" width="8" height="8" fill="#7f8c7f"/>
</svg>
