<svg xmlns="http://www.w3.org/2000/svg" viewBox="0 0 64 64" width="64" height="64">
  <defs>
    <linearGradient id="bg" x1="0" y1="0" x2="0" y2="1">
      <stop offset="0" stop-color="#4a5568"/>
      <stop offset="1" stop-color="#2d3748"/>
    </linearGradient>
    <radialGradient id="splat1" cx="35%" cy="35%">
      <stop offset="0%" stop-color="#ff6b9d" stop-opacity="1"/>
      <stop offset="60%" stop-color="#c44569" stop-opacity="0.85"/>
      <stop offset="100%" stop-color="#1a202c" stop-opacity="0.2"/>
    </radialGradient>
    <radialGradient id="splat2" cx="40%" cy="40%">
      <stop offset="0%" stop-color="#48dbfb" stop-opacity="1"/>
      <stop offset="60%" stop-color="#0abde3" stop-opacity="0.75"/>
      <stop offset="100%" stop-color="#1a202c" stop-opacity="0.2"/>
    </radialGradient>
    <radialGradient id="splat3" cx="45%" cy="45%">
      <stop offset="0%" stop-color="#feca57" stop-opacity="0.95"/>
      <stop offset="60%" stop-color="#ff9f43" stop-opacity="0.7"/>
      <stop offset="100%" stop-color="#1a202c" stop-opacity="0.2"/>
    </radialGradient>
    <radialGradient id="splat4" cx="35%" cy="35%">
      <stop offset="0%" stop-color="#1dd1a1" stop-opacity="0.9"/>
      <stop offset="100%" stop-color="#10ac84" stop-opacity="0.25"/>
    </radialGradient>
    <radialGradient id="splat5" cx="40%" cy="40%">
      <stop offset="0%" stop-color="#a55eea" stop-opacity="0.9"/>
      <stop offset="100%" stop-color="#8854d0" stop-opacity="0.25"/>
    </radialGradient>
  </defs>
  <rect width="64" height="64" rx="10" fill="url(#bg)"/>
  <rect x="1" y="1" width="62" height="62" rx="9" fill="none" stroke="#718096" stroke-width="1.2" opacity="0.55"/>
  <ellipse cx="22" cy="20" rx="10" ry="6" transform="rotate(-25 22 20)" fill="url(#splat1)"/>
  <ellipse cx="42" cy="22" rx="9" ry="5" transform="rotate(20 42 22)" fill="url(#splat2)"/>
  <ellipse cx="32" cy="38" rx="11" ry="7" transform="rotate(-10 32 38)" fill="url(#splat3)"/>
  <ellipse cx="18" cy="42" rx="7" ry="4" transform="rotate(35 18 42)" fill="url(#splat4)"/>
  <ellipse cx="48" cy="40" rx="6" ry="4" transform="rotate(-15 48 40)" fill="url(#splat5)"/>
  <circle cx="12" cy="28" r="2" fill="#ff8fab" opacity="0.85"/>
  <circle cx="52" cy="16" r="1.5" fill="#7dd3fc" opacity="0.8"/>
  <circle cx="38" cy="50" r="2" fill="#fcd34d" opacity="0.8"/>
  <circle cx="54" cy="48" r="1.5" fill="#6ee7b7" opacity="0.75"/>
  <circle cx="10" cy="48" r="1" fill="#c4b5fd" opacity="0.8"/>
  <line x1="22" y1="20" x2="42" y2="22" stroke="#cbd5e0" stroke-width="0.6" opacity="0.5"/>
  <line x1="22" y1="20" x2="32" y2="38" stroke="#cbd5e0" stroke-width="0.6" opacity="0.5"/>
  <line x1="42" y1="22" x2="32" y2="38" stroke="#cbd5e0" stroke-width="0.6" opacity="0.5"/>
  <text x="32" y="60" text-anchor="middle" fill="#e2e8f0" font-family="sans-serif" font-size="7" font-weight="bold">FS</text>
</svg>
